<svg xmlns="http://www.w3.org/2000/svg" xmlns:xlink="http://www.w3.org/1999/xlink" width="90" height="90" viewBox="0 0 90 90"><defs><clipPath id="clip-Artboard_12"><rect width="90" height="90"/></clipPath></defs><g id="Artboard_12" data-name="Artboard – 12" clip-path="url(#clip-Artboard_12)"><g id="Group_3283" data-name="Group 3283" transform="translate(48 -36.063)"><g id="Group_3229" data-name="Group 3229" transform="translate(-44 51.8)"><g id="Group_3214" data-name="Group 3214" transform="translate(24.988)"><path id="Path_1359" data-name="Path 1359" d="M395.458,161.407H372.983a5.753,5.753,0,0,0-5.741,5.75V173.9a5.722,5.722,0,0,0,3.9,5.428,5.55,5.55,0,0,0,1.845.313h22.474a5.564,5.564,0,0,0,1.846-.313A5.721,5.721,0,0,0,401.2,173.9v-6.739A5.753,5.753,0,0,0,395.458,161.407Zm.66,12.489a.672.672,0,0,1-.66.66H372.983a.667.667,0,0,1-.66-.66v-6.739a.67.67,0,0,1,.66-.67h22.474a.675.675,0,0,1,.66.67Z" transform="translate(-367.242 -161.407)" fill="#003f5a"/></g><path id="Path_1360" data-name="Path 1360" d="M429.873,174.6l-4.235,40.268a4.922,4.922,0,0,1-4.6,5.16H359.658a4.923,4.923,0,0,1-4.607-5.16L350.817,174.6a4.921,4.921,0,0,1,4.607-5.157h69.843A4.921,4.921,0,0,1,429.873,174.6Z" transform="translate(-348.379 -158.412)" fill="#00567c"/><path id="Rectangle_456" data-name="Rectangle 456" d="M1.2,0h73.74a1.2,1.2,0,0,1,1.2,1.2V8.476a1.2,1.2,0,0,1-1.2,1.2H1.2A1.2,1.2,0,0,1,0,8.476V1.2A1.2,1.2,0,0,1,1.2,0Z" transform="translate(3.894 19.334)" fill="#00354b"/><path id="Rectangle_457" data-name="Rectangle 457" d="M1.2,0H82.731a1.2,1.2,0,0,1,1.2,1.2V8.476a1.2,1.2,0,0,1-1.2,1.2H1.2A1.2,1.2,0,0,1,0,8.476V1.2A1.2,1.2,0,0,1,1.2,0Z" transform="translate(0 17.917)" fill="#003f5a"/><g id="Group_3220" data-name="Group 3220" transform="translate(35.806 22.761)"><path id="Path_1361" data-name="Path 1361" d="M372.691,178.985v6.122a1.015,1.015,0,0,1-1.008,1.008H360.759a1.008,1.008,0,0,1-1-1.008v-6.122a1,1,0,0,1,1-1h10.924A1.008,1.008,0,0,1,372.691,178.985Z" transform="translate(-359.761 -177.986)" fill="#032c3f"/><path id="Path_1362" data-name="Path 1362" d="M372.691,178.985v3.362h-12.93v-3.362a1,1,0,0,1,1-1h10.924A1.008,1.008,0,0,1,372.691,178.985Z" transform="translate(-359.761 -177.986)" fill="#00344b"/></g></g></g><g id="Group_3284" data-name="Group 3284" transform="translate(645.013 -855.027)"><path id="Path_1386" data-name="Path 1386" d="M-585.547,913.5l-10.655-6.859-.063,2.3,8.715,5.655Z" transform="translate(-3.37 0)" fill="#fff" style="isolation: isolate"/><path id="Path_1387" data-name="Path 1387" d="M-588.513,916.153l-7.732-5.028-.068,2.482,5.753,3.663Z" transform="translate(-3.357 -1.184)" fill="#fff" style="isolation: isolate"/><path id="Path_1388" data-name="Path 1388" d="M-609.013,922.924l11.26-5.814-1.963-1.2-9.249,4.732Z" transform="translate(0 -2.449)" fill="#fff" style="isolation: isolate"/><path id="Path_1389" data-name="Path 1389" d="M-608.735,919l8.215-4.193-2.117-1.3-6.045,3.159Z" transform="translate(-0.074 -1.815)" fill="#fff" style="isolation: isolate"/><path id="Path_1390" data-name="Path 1390" d="M-585.374,916.972l-11.26,5.814,1.963,1.2,9.248-4.732Z" transform="translate(-3.273 -2.73)" fill="#fff" style="isolation: isolate"/><path id="Path_1391" data-name="Path 1391" d="M-584.558,921.444l-8.215,4.193,2.117,1.3,6.045-3.159Z" transform="translate(-4.293 -3.912)" fill="#fff" style="isolation: isolate"/><path id="Path_1392" data-name="Path 1392" d="M-609.013,926.4l10.964,6.354-.045-2.3-8.969-5.242Z" transform="translate(0 -4.908)" fill="#fff" style="isolation: isolate"/><path id="Path_1393" data-name="Path 1393" d="M-604.915,924.168l8,4.59-.07-2.482-5.948-3.338Z" transform="translate(-1.084 -4.307)" fill="#fff" style="isolation: isolate"/></g></g></svg>