<svg id="Layer_1" data-name="Layer 1" xmlns="http://www.w3.org/2000/svg" viewBox="0 0 90 90"><defs><style>.cls-1{fill:#010101;}.cls-2{fill:#fff;}.cls-2,.cls-3{stroke:#10284a;stroke-miterlimit:10;stroke-width:3px;}.cls-3{fill:none;}.cls-4{fill:#10284a;}.cls-5{fill:#f3a859;}.cls-6{fill:#f9ce9d;}</style></defs><path class="cls-1" d="M16.91,39a1.48,1.48,0,0,0-1-.43,1.5,1.5,0,0,0-1,.43,1.46,1.46,0,0,0,0,2.07,1.5,1.5,0,0,0,1,.43,1.48,1.48,0,0,0,1-.43,1.46,1.46,0,0,0,0-2.07Z"/><path class="cls-1" d="M28.05,39a1.5,1.5,0,0,0-1-.43A1.48,1.48,0,0,0,26,39,1.46,1.46,0,0,0,26,41a1.48,1.48,0,0,0,1,.43,1.5,1.5,0,0,0,1-.43,1.49,1.49,0,0,0,0-2.07Z"/><path class="cls-1" d="M53.58,67.66a1.46,1.46,0,1,0,.43,1A1.48,1.48,0,0,0,53.58,67.66Z"/><path class="cls-1" d="M52.55,63.13a1.46,1.46,0,0,0,0-2.92"/><rect class="cls-2" x="9.24" y="33.32" width="48.91" height="47.17" rx="4.68"/><line class="cls-3" x1="9.24" y1="45.22" x2="58.15" y2="45.22"/><path class="cls-4" d="M51.75,38.54H34.34a1.47,1.47,0,0,0,0,2.93H51.75a1.47,1.47,0,0,0,0-2.93Z"/><path class="cls-4" d="M22.48,39a1.46,1.46,0,1,0,.43,1A1.48,1.48,0,0,0,22.48,39Z"/><path class="cls-4" d="M16.91,39a1.48,1.48,0,0,0-1-.43,1.5,1.5,0,0,0-1,.43,1.46,1.46,0,0,0,0,2.07,1.5,1.5,0,0,0,1,.43,1.48,1.48,0,0,0,1-.43,1.46,1.46,0,0,0,0-2.07Z"/><path class="cls-4" d="M46.29,53.18H36.38a1.47,1.47,0,0,0,0,2.93h9.91a1.47,1.47,0,0,0,0-2.93Z"/><path class="cls-4" d="M46.29,60.21H36.38a1.46,1.46,0,0,0,0,2.92h9.91a1.46,1.46,0,0,0,0-2.92Z"/><path class="cls-4" d="M46.72,67.23H36.38a1.47,1.47,0,0,0,0,2.93H46.72a1.47,1.47,0,1,0,0-2.93Z"/><rect class="cls-5" x="15.88" y="54.07" width="14.05" height="14.05" rx="2.22"/><path class="cls-4" d="M28.47,67.23H17.34V56.11H28.47Zm1.46-14.05h-14a1.46,1.46,0,0,0-1.47,1.46V68.7a1.47,1.47,0,0,0,1.47,1.46H29.93A1.47,1.47,0,0,0,31.4,68.7V54.64A1.46,1.46,0,0,0,29.93,53.18Z"/><path class="cls-6" d="M79,32.65,74.32,33a1.19,1.19,0,0,1-1.22-.86,22.78,22.78,0,0,0-1.68-4,1.19,1.19,0,0,1,.25-1.47l3.55-3.07a1.2,1.2,0,0,0,.06-1.75l-6.94-6.94a1.2,1.2,0,0,0-1.75.06l-3.07,3.54a1.19,1.19,0,0,1-1.47.26A22.88,22.88,0,0,0,58,17a1.2,1.2,0,0,1-.86-1.22l.34-4.67a1.19,1.19,0,0,0-1.19-1.28H46.47a1.19,1.19,0,0,0-1.19,1.28l.33,4.67A1.19,1.19,0,0,1,44.75,17a22.45,22.45,0,0,0-4,1.68,1.18,1.18,0,0,1-1.46-.26l-3.07-3.54a1.2,1.2,0,0,0-1.75-.06l-6.94,6.94a1.2,1.2,0,0,0,.06,1.75l3.54,3.07c.43.36.26,1.47.26,1.47l-.39.54h11.5a13.45,13.45,0,0,1,6.9-3.27,13.73,13.73,0,0,1,15.71,15.7c-.39,2.54-.91,4.52-2.54,6.41V59.07s.77-.93.8-1c.49-.26-.17.5.2.93l3.07,3.54a1.2,1.2,0,0,0,1.75.06l6.94-6.94A1.2,1.2,0,0,0,75.22,54l-3.55-3.07a1.19,1.19,0,0,1-.25-1.47,22.57,22.57,0,0,0,1.68-4.05,1.19,1.19,0,0,1,1.22-.85l4.67.33a1.2,1.2,0,0,0,1.28-1.19V33.84A1.2,1.2,0,0,0,79,32.65Z"/><path class="cls-4" d="M67,40.93A15.2,15.2,0,0,0,40.19,29h4.28a11.91,11.91,0,0,1,5.6-2.49A12.65,12.65,0,0,1,52,26.33,12.21,12.21,0,0,1,64.06,40.47a11.75,11.75,0,0,1-1.54,4.24v4.81A15.09,15.09,0,0,0,67,40.93Z"/><path class="cls-4" d="M81.4,31.52a2.7,2.7,0,0,0-2-.72L75,31.12a24.08,24.08,0,0,0-1.61-3.9l3.35-2.9a2.74,2.74,0,0,0,.93-1.94,2.7,2.7,0,0,0-.79-2l-6.94-6.94a2.7,2.7,0,0,0-4,.14L63,16.93a23.65,23.65,0,0,0-3.89-1.62l.31-4.42a2.68,2.68,0,0,0-.71-2,2.73,2.73,0,0,0-2-.86H47a2.7,2.7,0,0,0-2.69,2.89l.32,4.42a24.12,24.12,0,0,0-3.9,1.62l-2.9-3.35a2.67,2.67,0,0,0-1.94-.93,2.64,2.64,0,0,0-2,.79l-6.94,6.94a2.66,2.66,0,0,0-.79,2,2.7,2.7,0,0,0,.93,1.94l3.31,2.87h0L29.09,29h3.69l.48-.67.05-.35a3.17,3.17,0,0,0-.76-2.83l-3.29-2.85,6.48-6.48,2.85,3.29a2.69,2.69,0,0,0,3.31.6,21.85,21.85,0,0,1,3.78-1.57,2.68,2.68,0,0,0,1.92-2.76L47.29,11h9.16l-.31,4.35a2.68,2.68,0,0,0,1.91,2.76,21.22,21.22,0,0,1,3.78,1.57,2.67,2.67,0,0,0,3.31-.6L68,15.79l6.48,6.48-3.3,2.85a2.69,2.69,0,0,0-.6,3.31,20.79,20.79,0,0,1,1.57,3.78,2.68,2.68,0,0,0,2.76,1.92l4.35-.31V43l-4.35-.31a2.68,2.68,0,0,0-2.76,1.91,19.83,19.83,0,0,1-1.57,3.78,2.68,2.68,0,0,0,.6,3.31l3.3,2.86L68,61l-2.86-3.3a2.66,2.66,0,0,0-2.62-.84v3.26l.52-.26L66,63.22a2.71,2.71,0,0,0,1.94.93H68a2.75,2.75,0,0,0,1.91-.79l6.94-6.94a2.69,2.69,0,0,0-.14-3.94l-3.35-2.91A23.61,23.61,0,0,0,75,45.68l4.42.31a2.69,2.69,0,0,0,2.89-2.68V33.49A2.68,2.68,0,0,0,81.4,31.52Z"/></svg>