<svg id="Layer_1" data-name="Layer 1" xmlns="http://www.w3.org/2000/svg" viewBox="0 0 90 90"><defs><style>.cls-1{fill:#1daae2;}.cls-2{fill:#fff;}.cls-3{fill:#ef7b23;}.cls-4{fill:#163c6b;}</style></defs><path class="cls-1" d="M19.67,12.77H70.14A8.25,8.25,0,0,1,78.39,21v5.71a0,0,0,0,1,0,0h-67a0,0,0,0,1,0,0V21A8.25,8.25,0,0,1,19.67,12.77Z"/><circle class="cls-2" cx="21.02" cy="20.54" r="1.74"/><circle class="cls-2" cx="26.7" cy="20.54" r="1.74"/><circle class="cls-2" cx="32.95" cy="20.54" r="1.74"/><path class="cls-2" d="M56.55,62.63c0,.29-.47.52-1,.52a1.18,1.18,0,0,1-1.06-.52,1.12,1.12,0,0,1,1.06-.53C56.08,62.1,56.55,62.34,56.55,62.63Z"/><path class="cls-3" d="M58.81,43.55c-.07,0,9.76,8.38,11.21,10.8s2,4.85.94,7.27c-1.83,4.08-5.86,2-5.86,2a18.26,18.26,0,0,0,1.58-2,3.07,3.07,0,0,0,.44-2.25,6.05,6.05,0,0,1-1.15.89,12.06,12.06,0,0,1-1.18.55l.62-5.08A12.08,12.08,0,0,1,64,57.46a7.51,7.51,0,0,1-1.89,1.27l.17-4.27a.1.1,0,0,0-.19,0,9.24,9.24,0,0,1-2.63,3.66c-2.28,2-6.47,3.62-7.32,4.67a3,3,0,0,0-.47,2.59,3,3,0,0,1,1.81-.6,2.9,2.9,0,0,1,3.07,3.07c0,1.57-2.56,4.53-6.38,2.84-3.08-1.37-6.34-5.43-3.93-12.31,1.49-4.22,5.89-7.31,7.81-8.49a.14.14,0,0,0-.12-.26c-3.43,1-14.25,5-14,15.33a19.19,19.19,0,0,0,38.34.67C79,54.49,70.22,47.83,58.81,43.55ZM55.5,63.15a1.18,1.18,0,0,1-1.06-.52,1.12,1.12,0,0,1,1.06-.53c.58,0,1,.24,1,.53S56.08,63.15,55.5,63.15Z"/><path class="cls-4" d="M70.77,12.8H19a9.13,9.13,0,0,0-9.12,9.12v48.2A9.13,9.13,0,0,0,19,79.24H36.8a1.5,1.5,0,0,0,0-3H19a6.13,6.13,0,0,1-6.12-6.12V28.23h64V44.81a1.5,1.5,0,0,0,3,0V21.92A9.13,9.13,0,0,0,70.77,12.8ZM12.92,25.23V21.92A6.12,6.12,0,0,1,19,15.8H70.77a6.13,6.13,0,0,1,6.12,6.12v3.31Z"/></svg>