<svg xmlns="http://www.w3.org/2000/svg" viewBox="0 0 90 90"><defs><style>.cls-1{fill:none;}.cls-1,.cls-2,.cls-3,.cls-4{stroke:#717070;stroke-miterlimit:10;stroke-width:2px;}.cls-2,.cls-3{fill:#e0e0e0;}.cls-2{stroke-linecap:round;}.cls-4{fill:#fff;}.cls-5{fill:#f3d425;}.cls-6{fill:#e63047;}.cls-7{fill:#076b30;}</style></defs><g id="Layer_1" data-name="Layer 1"><rect class="cls-1" x="34.67" y="63" width="20.65" height="9.43" rx="1.79"/><line class="cls-2" x1="28.13" y1="72.43" x2="61.87" y2="72.43"/><path class="cls-3" d="M82.85,27.41V21.09c0-1.82-1.21-3.3-2.7-3.3H9.85c-1.49,0-2.7,1.48-2.7,3.3v6.32Z"/><path class="cls-4" d="M7.15,27.41V60.09c0,1.83,1.21,3.31,2.7,3.31h70.3c1.49,0,2.7-1.48,2.7-3.31V27.41Z"/><path class="cls-3" d="M7.15,27.56V60.44A2.56,2.56,0,0,0,9.71,63h9.44V27.56Z"/><path class="cls-5" d="M39.75,35.79h-12a1.5,1.5,0,0,1,0-3h12a1.5,1.5,0,0,1,0,3Z"/><path class="cls-6" d="M42.9,42.2H28.19a1.5,1.5,0,1,1,0-3H42.9a1.5,1.5,0,0,1,0,3Z"/><path class="cls-6" d="M62.39,42.2h-12a1.5,1.5,0,1,1,0-3h12a1.5,1.5,0,0,1,0,3Z"/><path class="cls-7" d="M56.89,35.79h-9a1.5,1.5,0,0,1,0-3h9a1.5,1.5,0,0,1,0,3Z"/><path class="cls-5" d="M59.9,50.58h-12a1.5,1.5,0,0,1,0-3h12a1.5,1.5,0,0,1,0,3Z"/><path class="cls-6" d="M40.65,50.58h-12a1.5,1.5,0,1,1,0-3h12a1.5,1.5,0,0,1,0,3Z"/><path class="cls-7" d="M41.09,57.58H28.25a1.5,1.5,0,0,1,0-3H41.09a1.5,1.5,0,0,1,0,3Z"/><path class="cls-7" d="M64,57.58H56.4a1.5,1.5,0,1,1,0-3H64a1.5,1.5,0,0,1,0,3Z"/><line class="cls-2" x1="25.57" y1="22.6" x2="67.31" y2="22.6"/></g></svg>