<svg id="icons" xmlns="http://www.w3.org/2000/svg" viewBox="0 0 16 16"><defs><style>.cls-1{fill:#0854a0;}</style></defs><path class="cls-1" d="M13.25,2.75a1.68,1.68,0,0,1,1.23.52,1.71,1.71,0,0,1,0,2.46,1.68,1.68,0,0,1-1.23.52,1.93,1.93,0,0,1-1.15-.41l-1.61,1A2.13,2.13,0,0,1,10.12,9a2.15,2.15,0,0,1-1.27.74v1.94a1.79,1.79,0,0,1,.75.64,1.75,1.75,0,0,1-.22,2.2,1.73,1.73,0,0,1-2.47,0,1.68,1.68,0,0,1-.52-1.23,1.79,1.79,0,0,1,.32-1,1.67,1.67,0,0,1,.85-.61v-2A2.14,2.14,0,0,1,6.28,8l-2-.11a1.79,1.79,0,0,1-.64.7,1.78,1.78,0,0,1-.92.26,1.68,1.68,0,0,1-1.24-.52,1.75,1.75,0,0,1,0-2.47,1.67,1.67,0,0,1,1.24-.51,1.71,1.71,0,0,1,1,.34,1.63,1.63,0,0,1,.63.89l2,.1a2.13,2.13,0,0,1,.44-.65l-1-1.64a1.73,1.73,0,0,1-.49.08A1.66,1.66,0,0,1,4.13,4a1.7,1.7,0,0,1-.5-1.23,1.7,1.7,0,0,1,.5-1.23A1.66,1.66,0,0,1,5.38,1a1.68,1.68,0,0,1,1.23.52,1.72,1.72,0,0,1,.52,1.23,1.64,1.64,0,0,1-.39,1.09l1,1.64a2.13,2.13,0,0,1,.71-.1,2.18,2.18,0,0,1,1.45.54l1.66-1a1.37,1.37,0,0,1-.05-.41A1.71,1.71,0,0,1,12,3.27,1.64,1.64,0,0,1,13.25,2.75Z"/></svg>