<svg id="Layer_1" data-name="Layer 1" xmlns="http://www.w3.org/2000/svg" viewBox="0 0 90 90"><defs><style>.cls-1{fill:#1daae2;}.cls-2{fill:#163c6b;}</style></defs><path class="cls-1" d="M52.47,86.61a1.48,1.48,0,0,1-1-.42,1.5,1.5,0,0,1,0-2.12c2.07-2.17,5.91-3.46,9.74-4.27C47.13,73,49.43,53.21,49.46,53A1.5,1.5,0,0,1,51,51.68c.82,0,18,1.32,24.77,13.69a18.34,18.34,0,0,1,6.44-10.19,1.5,1.5,0,1,1,1.84,2.36c-2.6,2-5.77,6-6.07,13.54,0,1.13-.51,1.74-1.39,1.82A1.56,1.56,0,0,1,75,71.67c-3-13-17.93-16.16-22.7-16.83-.28,5.1,0,21.51,15.59,23.91a1.53,1.53,0,0,1,1.3,1.51c0,1.32-1.17,1.47-2.18,1.61-7.12.93-11.65,2.37-13.46,4.27A1.51,1.51,0,0,1,52.47,86.61Z"/><path class="cls-1" d="M72.93,57.26a1.51,1.51,0,0,1-1.42-1c-.33-1-1.89-5.94.75-8.17,1.82-1.53,4.78-1.14,9,1.2a1.5,1.5,0,0,1-1.44,2.63c-3.35-1.84-5.14-2-5.66-1.54-.77.65-.4,3.31.15,4.9a1.49,1.49,0,0,1-.93,1.9A1.41,1.41,0,0,1,72.93,57.26Z"/><path class="cls-1" d="M47.27,83a1.6,1.6,0,0,1-.63-.14c-.93-.44-5.59-2.77-5.35-6.22.16-2.37,2.49-4.22,7.14-5.66a1.5,1.5,0,1,1,.89,2.86c-3.65,1.13-5,2.32-5,3-.07,1,2.1,2.58,3.63,3.3A1.5,1.5,0,0,1,47.27,83Z"/><path class="cls-2" d="M35,78.46H8A1.5,1.5,0,0,1,6.52,77V9.58A1.5,1.5,0,0,1,8,8.08H79.15a1.51,1.51,0,0,1,1.5,1.5V42a1.5,1.5,0,1,1-3,0V11.08H9.52V75.46H35a1.5,1.5,0,1,1,0,3Z"/><path class="cls-2" d="M29.07,37.92a1.34,1.34,0,0,1-.48-.08,1.5,1.5,0,0,1-.94-1.9l6.61-19.6a1.5,1.5,0,1,1,2.84,1L30.49,36.9A1.49,1.49,0,0,1,29.07,37.92Z"/><path class="cls-2" d="M40.8,35.21a1.5,1.5,0,0,1-1-2.6l5.64-5.2-5.64-5.2a1.5,1.5,0,0,1,2-2.21l6.83,6.3a1.51,1.51,0,0,1,.48,1.11,1.48,1.48,0,0,1-.48,1.1l-6.83,6.3A1.5,1.5,0,0,1,40.8,35.21Z"/><path class="cls-2" d="M23.13,35.21a1.45,1.45,0,0,1-1-.4l-6.84-6.3a1.48,1.48,0,0,1-.48-1.1,1.51,1.51,0,0,1,.48-1.11L22.12,20a1.5,1.5,0,0,1,2,2.21l-5.64,5.2,5.64,5.2a1.49,1.49,0,0,1,.08,2.12A1.47,1.47,0,0,1,23.13,35.21Z"/></svg>