<svg xmlns="http://www.w3.org/2000/svg" xmlns:xlink="http://www.w3.org/1999/xlink" width="90" height="90" viewBox="0 0 90 90">
  <defs>
    <clipPath id="clip-html_icon">
      <rect width="90" height="90"/>
    </clipPath>
  </defs>
  <g id="html_icon" clip-path="url(#clip-html_icon)">
    <g id="Group_3815" data-name="Group 3815" transform="translate(-4.464 -6.4)">
      <g id="Group_3813" data-name="Group 3813" transform="translate(16 26.466)">
        <path id="Path_1886" data-name="Path 1886" d="M64.387,67.323a4.889,4.889,0,0,1,5.74-4.826l3.323-39.3H18.107l5.277,56.29,22.48,6.224,18.522-5.265Z" transform="translate(-17.602 -22.644)" fill="#ba94c4"/>
        <path id="Path_1887" data-name="Path 1887" d="M45.778,23.2H18.107l5.277,56.291,22.394,6.2Z" transform="translate(-17.602 -22.643)" fill="#c2a3cc"/>
        <g id="Group_3808" data-name="Group 3808" transform="translate(10.617 11.197)">
          <path id="Path_1888" data-name="Path 1888" d="M62.368,33.386l-.507,7.205H35.373l.609,6.7H61.048L59.425,69.008l-13.7,3.653L30.907,69.109,29.892,57.844H37l.609,5.886,7.51,2.03,7.916-2.131.71-8.931-23.849-.2-2.03-21.109Z" transform="translate(-27.258 -32.837)" fill="#fff"/>
          <path id="Path_1889" data-name="Path 1889" d="M45.786,73.278,30.449,69.6l-1.1-12.256h8.2l.622,6,7,1.893,7.4-1.993.633-7.957-23.754-.2-2.136-22.2h35.7l-.584,8.3h-26.4l.51,5.6H61.694L60,69.487ZM31.473,68.717l14.3,3.427L58.96,68.627l1.551-20.738H35.535l-.709-7.8H61.4l.43-6.108H28.521L30.446,54l23.944.2L53.6,64.109l-8.432,2.27-8.017-2.165-.6-5.769H30.547Z" transform="translate(-27.312 -32.886)" fill="#161615"/>
        </g>
        <path id="Path_1890" data-name="Path 1890" d="M64.515,79.784l-18.562,5.4L23.987,79.106,18.8,23.792H72.943L69.665,62.565a4.868,4.868,0,0,1,1.074.334l3.347-39.611a.548.548,0,0,0-.547-.6H18.2a.55.55,0,0,0-.548.6l5.278,56.291a.548.548,0,0,0,.4.478l22.481,6.224a.5.5,0,0,0,.146.02.541.541,0,0,0,.151-.021l18.409-5.36Z" transform="translate(-17.647 -22.693)" fill="#161615"/>
        <g id="Group_3812" data-name="Group 3812" transform="translate(49.333 42.451)">
          <g id="Group_3809" data-name="Group 3809" transform="translate(0.598 0.55)">
            <path id="Path_1891" data-name="Path 1891" d="M83.925,72.684a1.612,1.612,0,0,1,0,2.791l-9.2,5.315-9.2,5.314a1.612,1.612,0,0,1-2.418-1.4V63.452a1.612,1.612,0,0,1,2.418-1.4l9.2,5.314Z" transform="translate(-63.099 -61.837)" fill="#5a7f5b"/>
          </g>
          <g id="Group_3810" data-name="Group 3810" transform="translate(0.679 0.551)">
            <path id="Path_1892" data-name="Path 1892" d="M65.4,84.15a1.482,1.482,0,0,1-2.222-1.283V63.321A1.482,1.482,0,0,1,65.4,62.038l8.464,4.886" transform="translate(-63.173 -61.837)" fill="#547754"/>
          </g>
          <g id="Group_3811" data-name="Group 3811">
            <path id="Path_1893" data-name="Path 1893" d="M64.716,86.921a2.166,2.166,0,0,1-1.081-.292,2.141,2.141,0,0,1-1.08-1.871V63.5A2.16,2.16,0,0,1,65.8,61.63L84.2,72.259A2.16,2.16,0,0,1,84.2,76L65.8,86.629A2.169,2.169,0,0,1,64.716,86.921Zm0-24.484A1.067,1.067,0,0,0,63.654,63.5V84.758a1.063,1.063,0,0,0,1.594.919L83.656,75.05a1.063,1.063,0,0,0,0-1.84h0L65.247,62.581A1.068,1.068,0,0,0,64.716,62.437Z" transform="translate(-62.555 -61.336)" fill="#161615"/>
          </g>
        </g>
      </g>
      <g id="Group_3814" data-name="Group 3814" transform="translate(21.493 12)">
        <path id="Path_1894" data-name="Path 1894" d="M22.652,19.476l.3-4.239.14-3.089.038-1.374q.015-.6.014-1.149l-.007-.746q1.219.016,1.826.015.475,0,1.648-.015-.185,2.229-.237,3.936H30.6c.024-.424.049-1,.073-1.722s.035-1.217.035-1.482c0-.141-.005-.383-.015-.732l1.837.015q.287,0,1.628-.015-.277,3.991-.354,5.935t-.078,4.662l-1.694-.015q-.381,0-1.818.015.194-1.847.264-4.3H26.249l-.131,4.3-1.8-.015Q23.972,19.46,22.652,19.476Z" transform="translate(-22.652 -8.878)" fill="#835299"/>
        <path id="Path_1895" data-name="Path 1895" d="M36.871,19.476q.386-3.773.462-8.307l-3.3.085.038-.861q.031-.69.046-1.514,2.2.016,5.138.016l1.917-.009h1.863l1.008-.008-.046.761c-.021.408-.035.744-.043,1.012s-.011.467-.011.6q-1.661-.084-2.739-.085H40.66q-.117,1.371-.18,2.534-.086,1.666-.133,3.234T40.3,19.476c-.848-.011-1.4-.015-1.645-.015Q38.321,19.46,36.871,19.476Z" transform="translate(-21.531 -8.878)" fill="#835299"/>
        <path id="Path_1896" data-name="Path 1896" d="M43.492,19.476l.193-1.569.477-5.442L44.4,8.878q1.432.016,2.251.015.679,0,2.073-.015c.067.446.123.783.17,1.013s.161.681.344,1.352.331,1.249.442,1.739.278,1.326.5,2.511q.341-1.219.622-2.1t.7-2q.42-1.119.533-1.463t.308-1.06q1.165.016,2.283.015.761,0,2.111-.015-.148,2.617-.194,4.5-.1,3.68-.1,5.062c0,.191,0,.538.015,1.04q-1.025-.016-1.437-.015-.6,0-1.467.015.063-.7.157-3.327t.094-3.357c0-.213-.005-.506-.015-.885l-1.018,3.16-1.462,4.41q-1.008-.016-1.39-.015-.481,0-1.475.015l-.957-4.27-.56-2.274c-.021-.088-.044-.2-.07-.326s-.067-.357-.124-.683l-.2,2.15-.258,4.41-.023.994q-1.073-.016-1.367-.015Q44.487,19.46,43.492,19.476Z" transform="translate(-20.599 -8.878)" fill="#835299"/>
        <path id="Path_1897" data-name="Path 1897" d="M56.913,19.476q.194-1.834.28-2.989.163-2.111.246-4.2t.081-3.412q1.056.016,1.87.015.55,0,1.583-.015l-.188,2.811-.234,4.394-.031,1.078c.891.016,1.47.024,1.74.024q2.042,0,3.091-.054l-.171,2.344q-2.042-.016-3.889-.015Q58.792,19.46,56.913,19.476Z" transform="translate(-19.276 -8.878)" fill="#835299"/>
      </g>
    </g>
  </g>
</svg>
