<svg xmlns="http://www.w3.org/2000/svg" viewBox="0 0 90 90"><defs><style>.cls-1,.cls-3,.cls-5{fill:#efe6df;}.cls-1,.cls-10,.cls-2,.cls-5,.cls-9{stroke:#132034;stroke-width:2px;}.cls-1,.cls-10,.cls-2,.cls-5,.cls-8,.cls-9{stroke-miterlimit:10;}.cls-2{fill:#fff;}.cls-4{fill:#e0d8d3;}.cls-5{stroke-linecap:round;}.cls-6{fill:#29612a;}.cls-7{fill:#295928;}.cls-8,.cls-9{fill:none;}.cls-8{stroke:#1d1d1b;stroke-width:1.4px;}.cls-10{fill:#d3cbc5;}</style></defs><g id="Layer_1" data-name="Layer 1"><path class="cls-1" d="M64.26,38.13h5.52A12.57,12.57,0,0,1,82.35,50.7v0A12.57,12.57,0,0,1,69.78,63.26H64.26a0,0,0,0,1,0,0V38.13A0,0,0,0,1,64.26,38.13Z"/><path class="cls-2" d="M53,41.72h16a8.84,8.84,0,0,1,8.84,8.84v0a8.84,8.84,0,0,1-8.84,8.84H53a0,0,0,0,1,0,0V41.72a0,0,0,0,1,0,0Z"/><path class="cls-3" d="M16.94,27.45h49.9a4,4,0,0,1,4,4V47.75a28.9,28.9,0,0,1-28.9,28.9h0A28.9,28.9,0,0,1,13,47.75V31.4a4,4,0,0,1,4-4Z"/><path class="cls-4" d="M63.51,28.28h2.3a3.88,3.88,0,0,1,4,3.79V47.73c0,10.32-.26,7.74-7.32,18.41"/><line class="cls-1" x1="39.97" y1="36.63" x2="70.79" y2="36.63"/><line class="cls-5" x1="32.25" y1="36.63" x2="39.97" y2="36.63"/><line class="cls-5" x1="12.98" y1="36.63" x2="25.13" y2="36.63"/><path class="cls-6" d="M49.94,52.88a1,1,0,0,1,0,1.77L44.12,58,38.3,61.37a1,1,0,0,1-1.53-.89V47a1,1,0,0,1,1.53-.88l5.82,3.36Z"/><path class="cls-7" d="M38.22,60.13a.93.93,0,0,1-1.4-.81V47a.93.93,0,0,1,1.4-.81l5.36,3.09"/><path class="cls-5" d="M46,21.3S49.6,14.66,46,8"/><path class="cls-5" d="M52.4,22.92s3-3.84,0-7.69"/><path class="cls-5" d="M39.64,21.3s2.25-4.79,0-7.85"/><path class="cls-8" d="M49.91,52.88a1,1,0,0,1,0,1.77L44.09,58l-5.82,3.36a1,1,0,0,1-1.53-.89V47a1,1,0,0,1,1.53-.88l5.82,3.36Z"/><path class="cls-9" d="M16.94,27.45h49.9a4,4,0,0,1,4,4V47.75a28.9,28.9,0,0,1-28.9,28.9h0A28.9,28.9,0,0,1,13,47.75V31.4a4,4,0,0,1,4-4Z"/><path class="cls-10" d="M14.56,74.5H69.22a1.18,1.18,0,0,1,1.1,1.8l-1.76,2.6A10.29,10.29,0,0,1,60,83.27H23.94a10.34,10.34,0,0,1-8.31-4l-2.14-2.88A1.18,1.18,0,0,1,14.56,74.5Z"/></g></svg>