<?xml version="1.0" encoding="utf-8"?>
<!-- Generator: Adobe Illustrator 24.1.3, SVG Export Plug-In . SVG Version: 6.00 Build 0)  -->
<svg version="1.1" id="scp-launchpad" xmlns="http://www.w3.org/2000/svg" xmlns:xlink="http://www.w3.org/1999/xlink" x="0px"
	 y="0px" viewBox="0 0 90 90" style="enable-background:new 0 0 90 90;" xml:space="preserve">
<style type="text/css">
	.st0{fill:#003B74;}
	.st1{fill:#006DD7;}
</style>
<path class="st0" d="M76.4,13.6c2.4-0.1,4.4,1.8,4.5,4.2c0,0.1,0,0.2,0,0.4v44.9c0,1.2-0.5,2.3-1.3,3.2c-0.8,0.9-2.1,1.4-3.3,1.3
	H13.6c-1.2,0-2.3-0.5-3.2-1.3s-1.3-2-1.3-3.2v-45c0-1.2,0.5-2.4,1.3-3.3c0.8-0.8,2-1.3,3.2-1.3L76.4,13.6L76.4,13.6z M76.4,18.1
	H13.6V63h62.9L76.4,18.1L76.4,18.1z"/>
<path class="st1" d="M19.9,22.6h21c1,0,1.9,0.8,1.9,1.9v18.7c0,1-0.8,1.9-1.9,1.9h-21c-1,0-1.9-0.8-1.9-1.9V24.4
	C18.1,23.4,18.9,22.6,19.9,22.6z"/>
<path class="st1" d="M49.1,22.6h21c1,0,1.9,0.8,1.9,1.9v5.2c0,1-0.8,1.9-1.9,1.9h-21c-1,0-1.9-0.8-1.9-1.9v-5.2
	C47.2,23.4,48.1,22.6,49.1,22.6z"/>
<path class="st1" d="M18.8,49.5h8.6c0.4,0,0.7,0.4,0.7,0.7v7.5c0,0.4-0.4,0.7-0.7,0.7h-8.6c-0.4,0-0.7-0.4-0.7-0.7v-7.5
	C18.1,49.9,18.3,49.5,18.8,49.5z"/>
<path class="st1" d="M33.4,49.5H42c0.4,0,0.7,0.4,0.7,0.7v7.5c0,0.4-0.4,0.7-0.7,0.7h-8.6c-0.4,0-0.7-0.4-0.7-0.7v-7.5
	C32.7,49.9,33,49.5,33.4,49.5z"/>
<path class="st1" d="M48,49.5h8.6c0.4,0,0.7,0.4,0.7,0.7v7.5c0,0.4-0.4,0.7-0.7,0.7H48c-0.4,0-0.7-0.4-0.7-0.7v-7.5
	C47.2,49.9,47.6,49.5,48,49.5z"/>
<path class="st1" d="M62.6,49.5h8.6c0.4,0,0.7,0.4,0.7,0.7v7.5c0,0.4-0.4,0.7-0.7,0.7h-8.6c-0.4,0-0.7-0.4-0.7-0.7v-7.5
	C61.9,49.9,62.2,49.5,62.6,49.5z"/>
<path class="st1" d="M48,36.1h8.6c0.4,0,0.7,0.4,0.7,0.7v7.5c0,0.4-0.4,0.7-0.7,0.7H48c-0.4,0-0.7-0.4-0.7-0.7v-7.5
	C47.2,36.4,47.6,36.1,48,36.1z"/>
<path class="st1" d="M62.6,36.1h8.6c0.4,0,0.7,0.4,0.7,0.7v7.5c0,0.4-0.4,0.7-0.7,0.7h-8.6c-0.4,0-0.7-0.4-0.7-0.7v-7.5
	C61.9,36.4,62.2,36.1,62.6,36.1z"/>
<path class="st0" d="M60.8,76.5H29.3c-1.2,0-2.2-1-2.2-2.2l0,0c0-1.2,1-2.2,2.2-2.2h31.4c1.2,0,2.2,1,2.2,2.2l0,0
	C63,75.4,62,76.5,60.8,76.5z"/>
</svg>