<svg id="Layer_1" data-name="Layer 1" xmlns="http://www.w3.org/2000/svg" viewBox="0 0 90 90"><defs><style>.cls-1{fill:#c8c7c9;}.cls-2{fill:#e3e3e4;}.cls-3,.cls-6{fill:#fff;}.cls-11,.cls-12,.cls-13,.cls-3,.cls-5,.cls-6{stroke:#132034;stroke-miterlimit:10;stroke-width:2px;}.cls-3,.cls-5{stroke-linecap:round;}.cls-4{fill:#d3d3d3;}.cls-11,.cls-5{fill:none;}.cls-7,.cls-8{fill:#132034;}.cls-8{font-size:20.13px;font-family:Consolas-Bold, Consolas;font-weight:700;}.cls-13,.cls-9{fill:#9c67a8;}.cls-10{fill:#90619b;}.cls-12{fill:#c8a9d0;}.cls-14{fill:#e7d0e6;}.cls-15{fill:#e0bfdd;}</style></defs><rect class="cls-1" x="18.96" y="34.34" width="46.54" height="28.18" rx="4.79"/><path class="cls-2" d="M20.47,32.74H63.79a1.61,1.61,0,0,1,1.61,1.61V58.1A4.42,4.42,0,0,1,61,62.52H25.05a6.19,6.19,0,0,1-6.19-6.19v-22A1.61,1.61,0,0,1,20.47,32.74Z"/><line class="cls-3" x1="27.95" y1="44.11" x2="52.29" y2="44.11"/><line class="cls-3" x1="27.95" y1="49.09" x2="44.97" y2="49.09"/><path class="cls-4" d="M58.3,32.74h5.87a0,0,0,0,1,0,0V57.55a5,5,0,0,1-5,5h-.9a0,0,0,0,1,0,0V32.74A0,0,0,0,1,58.3,32.74Z"/><path class="cls-5" d="M47.17,25.48H60.61a4.8,4.8,0,0,1,4.79,4.79V57.73a4.81,4.81,0,0,1-4.79,4.79h-37a4.81,4.81,0,0,1-4.79-4.79V30.27"/><line class="cls-6" x1="18.86" y1="33.86" x2="65.4" y2="33.86"/><circle class="cls-7" cx="59.33" cy="29.92" r="1.21"/><circle class="cls-7" cx="55.35" cy="29.92" r="1.21"/><text class="cls-8" transform="translate(8.93 26.4)">MTA</text><path class="cls-9" d="M51.59,57.37a.59.59,0,0,1,0-.23c.5,2.31,6,4.74,13.73,4.74s13.24-2.43,13.74-4.74a.59.59,0,0,1,0,.23l-.06-7.8c0-.08-6,4.48-13.73,4.48s-13.23-2.43-13.73-4.74"/><path class="cls-9" d="M79.11,64.3c-.5,2.31-6,4.74-13.74,4.74S52.14,66.61,51.64,64.3a.56.56,0,0,0,0,.23v7.82a.59.59,0,0,1,0-.23c.5,2.31,6,4.74,13.73,4.74s13.24-2.43,13.74-4.74c0,.07,0-7.59,0-7.59A.56.56,0,0,0,79.11,64.3Z"/><path class="cls-9" d="M79.11,56.61c-.5,2.3-6,4.74-13.74,4.74s-13.23-2.44-13.73-4.74a.54.54,0,0,0,0,.22v7.83a.59.59,0,0,1,0-.23c.5,2.31,6,4.74,13.73,4.74s13.24-2.43,13.74-4.74a.59.59,0,0,1,0,.23V56.83A.54.54,0,0,0,79.11,56.61Z"/><path class="cls-10" d="M76.21,74.8,78,74.17a1.65,1.65,0,0,0,1.13-1.57V51.06l-3.07,1.79Z"/><path class="cls-11" d="M51.61,57.32a.54.54,0,0,1,0-.22c.5,2.3,6,4.73,13.74,4.73S78.64,59.4,79.13,57.1a.42.42,0,0,1,.05.22l-.06-7.79c0-.08-6,4.48-13.72,4.48s-13.24-2.43-13.74-4.74"/><path class="cls-11" d="M79.13,64.25c-.49,2.31-6,4.74-13.73,4.74s-13.24-2.43-13.74-4.74a.59.59,0,0,0,0,.23v7.83a.59.59,0,0,1,0-.23c.5,2.31,6,4.74,13.74,4.74s13.24-2.43,13.73-4.74c0,.07.05-7.6.05-7.6A.46.46,0,0,0,79.13,64.25Z"/><ellipse class="cls-12" cx="65.4" cy="49.1" rx="13.78" ry="5.08"/><path class="cls-11" d="M79.13,56.56c-.49,2.31-6,4.74-13.73,4.74s-13.24-2.43-13.74-4.74a.59.59,0,0,0,0,.23v7.83a.56.56,0,0,1,0-.23c.5,2.31,6,4.74,13.74,4.74s13.24-2.43,13.73-4.74a.43.43,0,0,1,.05.23V56.79A.46.46,0,0,0,79.13,56.56Z"/><line class="cls-13" x1="51.66" y1="57.1" x2="51.66" y2="49.27"/><path class="cls-14" d="M58.88,65.65H56.82l-.11-.44a11.67,11.67,0,0,0-1.5-3.63L55,61.2l1.46-1.46a.45.45,0,0,0,0-.64l-2.61-2.61a.45.45,0,0,0-.64,0L51.72,58l-.38-.24a11.67,11.67,0,0,0-3.63-1.5l-.44-.11V54a.45.45,0,0,0-.45-.45h-3.7a.45.45,0,0,0-.45.45V56.1l-.44.11a11.67,11.67,0,0,0-3.63,1.5l-.38.24-1.46-1.46a.45.45,0,0,0-.64,0L33.51,59.1a.45.45,0,0,0,0,.64L35,61.2l-.24.38a11.91,11.91,0,0,0-1.5,3.63l-.11.44H31.06a.45.45,0,0,0-.45.45v3.7a.45.45,0,0,0,.45.45h2.06l.11.44a11.67,11.67,0,0,0,1.5,3.63l.24.38-1.46,1.46a.45.45,0,0,0,0,.64l2.61,2.61a.46.46,0,0,0,.64,0L38.22,78l.38.24a11.91,11.91,0,0,0,3.63,1.5l.44.11v2.06a.45.45,0,0,0,.45.45h3.7a.45.45,0,0,0,.45-.45V79.8l.44-.11a11.67,11.67,0,0,0,3.63-1.5l.38-.24,1.46,1.46a.46.46,0,0,0,.64,0l2.61-2.61a.45.45,0,0,0,0-.64L55,74.7l.24-.38a11.77,11.77,0,0,0,1.5-3.63l.11-.44h2.06a.45.45,0,0,0,.45-.45V66.1A.45.45,0,0,0,58.88,65.65ZM45,72.74A4.8,4.8,0,1,1,49.77,68,4.78,4.78,0,0,1,45,72.74Z"/><path class="cls-15" d="M57.63,65.65h0l.93-.32c.24,0,.32.08.32.32l.06,3.14a.45.45,0,0,1-.45.44H56.43l-.1.45a12.22,12.22,0,0,1-1.5,3.62l-.24.39L56,75.15a.43.43,0,0,1,0,.63L53.43,78.4a.45.45,0,0,1-.63,0l-1.46-1.46-.39.24a12,12,0,0,1-3.62,1.5l-.45.1v2.07a.45.45,0,0,1-.45.44h-3.7a.44.44,0,0,1-.44-.44V78.78l-.45-.1c-1.28-.3-.54.5-1.66-.2l-1.27-.83L57.06,65.4"/><path class="cls-11" d="M58.88,65.65H56.82l-.11-.44a11.67,11.67,0,0,0-1.5-3.63L55,61.2l1.46-1.46a.45.45,0,0,0,0-.64l-2.61-2.61a.45.45,0,0,0-.64,0L51.72,58l-.38-.24a11.67,11.67,0,0,0-3.63-1.5l-.44-.11V54a.45.45,0,0,0-.45-.45h-3.7a.45.45,0,0,0-.45.45V56.1l-.44.11a11.67,11.67,0,0,0-3.63,1.5l-.38.24-1.46-1.46a.45.45,0,0,0-.64,0L33.51,59.1a.45.45,0,0,0,0,.64L35,61.2l-.24.38a11.91,11.91,0,0,0-1.5,3.63l-.11.44H31.06a.45.45,0,0,0-.45.45v3.7a.45.45,0,0,0,.45.45h2.06l.11.44a11.67,11.67,0,0,0,1.5,3.63l.24.38-1.46,1.46a.45.45,0,0,0,0,.64l2.61,2.61a.46.46,0,0,0,.64,0L38.22,78l.38.24a11.91,11.91,0,0,0,3.63,1.5l.44.11v2.06a.45.45,0,0,0,.45.45h3.7a.45.45,0,0,0,.45-.45V79.8l.44-.11a11.67,11.67,0,0,0,3.63-1.5l.38-.24,1.46,1.46a.46.46,0,0,0,.64,0l2.61-2.61a.45.45,0,0,0,0-.64L55,74.7l.24-.38a11.77,11.77,0,0,0,1.5-3.63l.11-.44h2.06a.45.45,0,0,0,.45-.45V66.1A.45.45,0,0,0,58.88,65.65ZM45,72.74A4.8,4.8,0,1,1,49.77,68,4.78,4.78,0,0,1,45,72.74Z"/></svg>