<?xml version="1.0" encoding="UTF-8"?>
<svg width="90px" height="90px" viewBox="0 0 90 90" version="1.1" xmlns="http://www.w3.org/2000/svg" xmlns:xlink="http://www.w3.org/1999/xlink">
    <title> SAP HANA SDI Tools (smart data integration)</title>
    <g id="-SAP-HANA-SDI-Tools-(smart-data-integration)" stroke="none" stroke-width="1" fill="none" fill-rule="evenodd">
        <g transform="translate(13.000000, 13.000000)">
            <g id="Group-18">
                <path d="M46.7121911,41.7313511 L59,34.8619261 L59,48.7256282 L46.7121911,55.7216156 L46.7121911,41.7313511 Z M59,16.2880542 L59,30.150046 L46.7121911,37.1460334 L46.7121911,23.2763452 L34.4280132,16.2803578 L46.7121911,9.28437048 L59,16.2880542 Z M29.5671713,51.1362979 L41.852257,44.1394553 L41.852257,58.0040126 L29.5644481,65 L17.1495584,57.9980266 L17.1495584,44.1394553 L29.5671713,51.1362979 Z M29.5671713,18.5738719 L41.8540724,25.4441521 L41.8540724,39.4284305 L29.5671713,46.2961452 L17.1495584,39.4284305 L17.1495584,25.438166 L29.5671713,18.5738719 Z M29.5671713,13.8619918 L17.1495584,6.99598737 L29.5726176,0 L41.8604265,6.99598737 L29.5671713,13.8619918 Z M0,34.8482437 L12.284178,41.7176687 L12.284178,55.7087883 L0,48.7128009 L0,34.8482437 Z M24.5710791,16.1520853 L12.284178,23.2763452 L12.284178,37.1383371 L0,30.1423497 L0,16.2803578 L12.284178,9.28437048 L24.5710791,16.1520853 Z" id="Fill-1" fill="#91BCEC"></path>
                <path d="M46.7121911,41.7313511 L59,34.8619261 L59,48.7256282 L46.7121911,55.7216156 L46.7121911,41.7313511 Z M59,16.2880542 L59,30.150046 L46.7121911,37.1460334 L46.7121911,23.2763452 L34.4280132,16.2803578 L46.7121911,9.28437048 L59,16.2880542 Z M29.5671713,51.1362979 L41.852257,44.1394553 L41.852257,58.0040126 L29.5644481,65 L17.1495584,57.9980266 L17.1495584,44.1394553 L29.5671713,51.1362979 Z M29.5671713,18.5738719 L41.8540724,25.4441521 L41.8540724,39.4284305 L29.5671713,46.2961452 L17.1495584,39.4284305 L17.1495584,25.438166 L29.5671713,18.5738719 Z M29.5671713,13.8619918 L17.1495584,6.99598737 L29.5726176,0 L41.8604265,6.99598737 L29.5671713,13.8619918 Z M0,34.8482437 L12.284178,41.7176687 L12.284178,55.7087883 L0,48.7128009 L0,34.8482437 Z M24.5710791,16.1520853 L12.284178,23.2763452 L12.284178,37.1383371 L0,30.1423497 L0,16.2803578 L12.284178,9.28437048 L24.5710791,16.1520853 Z" id="Stroke-2" stroke="#131F34" stroke-width="2" stroke-linecap="round"></path>
            </g>
            <polygon id="Path-11" stroke="#131F34" stroke-width="2" fill="#F5F3F3" points="30 33.5196158 48.3173703 23 66.6285417 33.5196158 67 54.4035785 49.8249546 65 30 54.4759637"></polygon>
            <g id="Group-15" transform="translate(34.000000, 32.000000)">
                <circle id="Oval" fill="#131F34" cx="8.5" cy="5.5" r="2.5"></circle>
                <circle id="Oval" fill="#131F34" cx="4" cy="12" r="4"></circle>
                <circle id="Oval" fill="#131F34" cx="23.5" cy="3.5" r="3.5"></circle>
                <circle id="Oval" fill="#131F34" cx="15.5" cy="24.5" r="3.5"></circle>
                <line x1="9" y1="6" x2="12.2" y2="8.4" id="Line-5" stroke="#131F34" stroke-width="2" stroke-linecap="square"></line>
                <line x1="19" y1="8.4" x2="21.4" y2="6" id="Line-5" stroke="#131F34" stroke-width="2" stroke-linecap="square"></line>
                <line x1="15.5" y1="21.625" x2="15.5" y2="19.375" id="Line-5" stroke="#131F34" stroke-width="2" stroke-linecap="square"></line>
                <line x1="7.375" y1="12.5" x2="9.625" y2="12.5" id="Line-5" stroke="#131F34" stroke-width="2" stroke-linecap="square"></line>
                <circle id="Oval" stroke="#131F34" stroke-width="2" cx="15" cy="13" r="5"></circle>
            </g>
        </g>
    </g>
</svg>