<?xml version="1.0" encoding="UTF-8"?>
<svg width="90px" height="90px" viewBox="0 0 90 90" version="1.1" xmlns="http://www.w3.org/2000/svg" xmlns:xlink="http://www.w3.org/1999/xlink">
    <title>SAP HANA SQL Analyzer 2</title>
    <g id="SAP-HANA-SQL-Analyzer-2" stroke="none" stroke-width="1" fill="none" fill-rule="evenodd">
        <g transform="translate(8.000000, 9.000000)" id="SQL">
            <g id="Group-18">
                <path d="M46.8803273,41.770013 L58.9815848,34.9889091 L58.9815848,48.6743636 L46.8803273,55.5804026 L46.8803273,41.770013 Z M58.9815848,16.6538442 L58.9815848,30.3376104 L46.8803273,37.2436494 L46.8803273,23.5522857 L34.7826455,16.6462468 L46.8803273,9.74020779 L58.9815848,16.6538442 Z M29.9956,51.054039 L42.0941758,44.1471558 L42.0941758,57.8334545 L29.9929182,64.7394935 L17.7665091,57.8275455 L17.7665091,44.1471558 L29.9956,51.054039 Z M29.9956,18.9102727 L42.0959636,25.6922208 L42.0959636,39.4967013 L29.9956,46.2761169 L17.7665091,39.4967013 L17.7665091,25.6863117 L29.9956,18.9102727 Z M29.9956,14.258974 L17.7665091,7.48124675 L30.0009636,0.575207792 L42.1022212,7.48124675 L29.9956,14.258974 Z M0.877312121,34.9754026 L12.9749939,41.7565065 L12.9749939,55.5677403 L0.877312121,48.6617013 L0.877312121,34.9754026 Z M25.0753576,16.5196234 L12.9749939,23.5522857 L12.9749939,37.2360519 L0.877312121,30.330013 L0.877312121,16.6462468 L12.9749939,9.74020779 L25.0753576,16.5196234 Z" id="Fill-1" fill="#91BCEC"></path>
                <path d="M46.8803273,41.770013 L58.9815848,34.9889091 L58.9815848,48.6743636 L46.8803273,55.5804026 L46.8803273,41.770013 Z M58.9815848,16.6538442 L58.9815848,30.3376104 L46.8803273,37.2436494 L46.8803273,23.5522857 L34.7826455,16.6462468 L46.8803273,9.74020779 L58.9815848,16.6538442 Z M29.9956,51.054039 L42.0941758,44.1471558 L42.0941758,57.8334545 L29.9929182,64.7394935 L17.7665091,57.8275455 L17.7665091,44.1471558 L29.9956,51.054039 Z M29.9956,18.9102727 L42.0959636,25.6922208 L42.0959636,39.4967013 L29.9956,46.2761169 L17.7665091,39.4967013 L17.7665091,25.6863117 L29.9956,18.9102727 Z M29.9956,14.258974 L17.7665091,7.48124675 L30.0009636,0.575207792 L42.1022212,7.48124675 L29.9956,14.258974 Z M0.877312121,34.9754026 L12.9749939,41.7565065 L12.9749939,55.5677403 L0.877312121,48.6617013 L0.877312121,34.9754026 Z M25.0753576,16.5196234 L12.9749939,23.5522857 L12.9749939,37.2360519 L0.877312121,30.330013 L0.877312121,16.6462468 L12.9749939,9.74020779 L25.0753576,16.5196234 Z" id="Stroke-2" stroke="#131F34" stroke-width="2" stroke-linecap="round"></path>
            </g>
            <rect id="Rectangle" stroke="#131F34" stroke-width="2" fill="#F5F3F3" x="34" y="28" width="41" height="35" rx="2"></rect>
            <g id="Group" transform="translate(40.000000, 33.000000)" stroke="#131F34" stroke-width="2">
                <rect id="Rectangle" fill="#59AAF4" x="0" y="17" width="13" height="8" rx="1.5"></rect>
                <rect id="Rectangle" fill="#F7B500" x="8.22580645" y="1.10134124e-13" width="11.7419355" height="8.96551724" rx="1.5"></rect>
                <rect id="Rectangle" fill="#F48771" x="16.3548387" y="17" width="12.6451613" height="8" rx="1.5"></rect>
                <polyline id="Path-2" stroke-linecap="round" stroke-linejoin="round" points="14.5483871 9.86206897 14.5483871 13.2811783 6.5483871 13.2811783 6.5483871 16.137931"></polyline>
                <polyline id="Path-2" stroke-linecap="round" stroke-linejoin="round" transform="translate(18.548387, 13.000000) scale(-1, 1) translate(-18.548387, -13.000000) " points="22.5483871 9.86206897 22.5483871 13.2811783 14.5483871 13.2811783 14.5483871 16.137931"></polyline>
            </g>
        </g>
    </g>
</svg>