<?xml version="1.0" encoding="UTF-8"?>
<svg width="90px" height="90px" viewBox="0 0 90 90" version="1.1" xmlns="http://www.w3.org/2000/svg" xmlns:xlink="http://www.w3.org/1999/xlink">
    <title>SAP HANA Calculation View Editor</title>
    <g id="SAP-HANA-Calculation-View-Editor" stroke="none" stroke-width="1" fill="none" fill-rule="evenodd">
        <g transform="translate(7.000000, 9.000000)">
            <g id="Group-18">
                <path d="M46.7121911,41.7313511 L59,34.8619261 L59,48.7256282 L46.7121911,55.7216156 L46.7121911,41.7313511 Z M59,16.2880542 L59,30.150046 L46.7121911,37.1460334 L46.7121911,23.2763452 L34.4280132,16.2803578 L46.7121911,9.28437048 L59,16.2880542 Z M29.5671713,51.1362979 L41.852257,44.1394553 L41.852257,58.0040126 L29.5644481,65 L17.1495584,57.9980266 L17.1495584,44.1394553 L29.5671713,51.1362979 Z M29.5671713,18.5738719 L41.8540724,25.4441521 L41.8540724,39.4284305 L29.5671713,46.2961452 L17.1495584,39.4284305 L17.1495584,25.438166 L29.5671713,18.5738719 Z M29.5671713,13.8619918 L17.1495584,6.99598737 L29.5726176,0 L41.8604265,6.99598737 L29.5671713,13.8619918 Z M0,34.8482437 L12.284178,41.7176687 L12.284178,55.7087883 L0,48.7128009 L0,34.8482437 Z M24.5710791,16.1520853 L12.284178,23.2763452 L12.284178,37.1383371 L0,30.1423497 L0,16.2803578 L12.284178,9.28437048 L24.5710791,16.1520853 Z" id="Fill-1" fill="#91BCEC"></path>
                <path d="M46.7121911,41.7313511 L59,34.8619261 L59,48.7256282 L46.7121911,55.7216156 L46.7121911,41.7313511 Z M59,16.2880542 L59,30.150046 L46.7121911,37.1460334 L46.7121911,23.2763452 L34.4280132,16.2803578 L46.7121911,9.28437048 L59,16.2880542 Z M29.5671713,51.1362979 L41.852257,44.1394553 L41.852257,58.0040126 L29.5644481,65 L17.1495584,57.9980266 L17.1495584,44.1394553 L29.5671713,51.1362979 Z M29.5671713,18.5738719 L41.8540724,25.4441521 L41.8540724,39.4284305 L29.5671713,46.2961452 L17.1495584,39.4284305 L17.1495584,25.438166 L29.5671713,18.5738719 Z M29.5671713,13.8619918 L17.1495584,6.99598737 L29.5726176,0 L41.8604265,6.99598737 L29.5671713,13.8619918 Z M0,34.8482437 L12.284178,41.7176687 L12.284178,55.7087883 L0,48.7128009 L0,34.8482437 Z M24.5710791,16.1520853 L12.284178,23.2763452 L12.284178,37.1383371 L0,30.1423497 L0,16.2803578 L12.284178,9.28437048 L24.5710791,16.1520853 Z" id="Stroke-2" stroke="#131F34" stroke-width="2" stroke-linecap="round"></path>
            </g>
            <g id="Group-2-Copy" transform="translate(34.000000, 30.000000)" fill="#F5F3F3" stroke="#131F34" stroke-width="2">
                <g id="Group-3">
                    <rect id="Rectangle" x="0" y="0" width="42" height="34" rx="2"></rect>
                </g>
            </g>
            <g id="Group-5" transform="translate(37.000000, 34.000000)" stroke="#131F34" stroke-width="1.5">
                <path d="M26.5551414,19.0048547 L35.5009397,19.091558 C35.776711,19.0942308 35.9982454,19.3196875 35.9960784,19.5954633 L35.9496889,25.4990975 C35.9475191,25.7752314 35.7219095,25.9973231 35.4457756,25.9951533 C35.4454699,25.9951509 35.4451642,25.9951483 35.4448586,25.9951453 L26.4990603,25.908442 C26.223289,25.9057692 26.0017546,25.6803125 26.0039216,25.4045367 L26.0503111,19.5009025 C26.0524809,19.2247686 26.2780905,19.0026769 26.5542244,19.0048467 C26.5545301,19.0048491 26.5548358,19.0048517 26.5551414,19.0048547 Z" id="Rectangle" fill="#C7A2FF"></path>
                <path d="M13.5551414,19.0048547 L22.5009397,19.091558 C22.776711,19.0942308 22.9982454,19.3196875 22.9960784,19.5954633 L22.9496889,25.4990975 C22.9475191,25.7752314 22.7219095,25.9973231 22.4457756,25.9951533 C22.4454699,25.9951509 22.4451642,25.9951483 22.4448586,25.9951453 L13.4990603,25.908442 C13.223289,25.9057692 13.0017546,25.6803125 13.0039216,25.4045367 L13.0503111,19.5009025 C13.0524809,19.2247686 13.2780905,19.0026769 13.5542244,19.0048467 C13.5545301,19.0048491 13.5548358,19.0048517 13.5551414,19.0048547 Z" id="Rectangle" fill="#C7A2FF"></path>
                <path d="M0.555141434,19.0048547 L9.50093967,19.091558 C9.77671102,19.0942308 9.99824541,19.3196875 9.99607843,19.5954633 L9.94968894,25.4990975 C9.94751914,25.7752314 9.72190945,25.9973231 9.4457756,25.9951533 C9.44546992,25.9951509 9.44516424,25.9951483 9.44485857,25.9951453 L0.499060328,25.908442 C0.223288976,25.9057692 0.00175458502,25.6803125 0.0039215719,25.4045367 L0.0503110607,19.5009025 C0.0524808611,19.2247686 0.278090546,19.0026769 0.554224396,19.0048467 C0.554530078,19.0048491 0.554835757,19.0048517 0.555141434,19.0048547 Z" id="Rectangle" fill="#C7A2FF"></path>
                <polygon id="Rectangle" fill="#0078D4" points="11.0512543 6 25 6.14213818 24.9487457 13 11 12.8578618"></polygon>
                <polygon id="Rectangle" fill="#0091FF" points="11.0256741 0 25 0.119408088 24.9743259 3 11 2.88059191"></polygon>
                <line x1="18" y1="4" x2="18" y2="6" id="Line" stroke-linecap="square"></line>
                <line x1="18.25" y1="13.25" x2="17.75" y2="17.75" id="Line" stroke-linecap="square" transform="translate(18.250000, 15.250000) rotate(-6.340192) translate(-18.250000, -15.250000) "></line>
            </g>
            <polyline id="Path-3" fill="#131F34" points="41.4545395 49 41.4545395 53 43.0644764 53 43.0644764 50.3644987 67.6925578 50.3644987 67.6925578 53 69.2300703 53 69.2300703 49 41 49"></polyline>
        </g>
    </g>
</svg>