<?xml version="1.0" encoding="utf-8"?>
<!-- Generator: Adobe Illustrator 24.1.0, SVG Export Plug-In . SVG Version: 6.00 Build 0)  -->
<svg version="1.1" id="Layer_1" xmlns="http://www.w3.org/2000/svg" xmlns:xlink="http://www.w3.org/1999/xlink" x="0px" y="0px"
	 viewBox="0 0 90 90" style="enable-background:new 0 0 90 90;" xml:space="preserve">
<style type="text/css">
	.st0{fill:#007cc0;}
	.st1{fill:#007cc0;}
</style>
<g id="Layer_2_1_">
	<g id="Design">
		<path class="st0" d="M79.1,19c-4.1,0-7.4,3.3-7.4,7.4v11.1c0,2.5-2,4.4-4.4,4.4s-4.4-2-4.4-4.4V21.3c0-9.8-8-17.8-17.8-17.8
			s-17.8,8-17.8,17.8v22.2c0,2.5-2,4.4-4.4,4.4s-4.4-2-4.4-4.4V10.9c0-4.1-3.3-7.4-7.4-7.4s-7.4,3.3-7.4,7.4v4.4
			c0,4.1,3.3,7.4,7.4,7.4c1.6,0,3.2-0.5,4.4-1.5v22.2c0,4.1,3.3,7.4,7.4,7.4s7.4-3.3,7.4-7.4V21.3c0-8.2,6.6-14.8,14.8-14.8
			c3.6,0,7.1,1.3,9.8,3.7c-1.1,0.6-1.5,1.9-1,3c0.4,0.8,1.2,1.2,2,1.2c0.7,0,1.4-0.3,1.8-0.9c1.5,2.3,2.3,5,2.3,7.8v16.3
			c0,4.1,3.3,7.4,7.4,7.4c4.1,0,7.4-3.3,7.4-7.4v-0.7c3.3,2.5,7.9,1.8,10.4-1.5c1-1.3,1.5-2.8,1.5-4.4v-4.5
			C86.5,22.4,83.2,19,79.1,19z M10.9,19.8c-2.5,0-4.4-2-4.4-4.4v-4.4c0-2.5,2-4.4,4.4-4.4s4.4,2,4.4,4.4v4.4
			C15.4,17.8,13.4,19.8,10.9,19.8z M83.5,30.9c0,2.5-2,4.4-4.4,4.4s-4.4-2-4.4-4.4v-4.4c0-2.5,2-4.4,4.4-4.4s4.4,2,4.4,4.4V30.9z"/>
		<path class="st1" d="M40.6,53.9c-0.8,0-1.5,0.7-1.5,1.5v15.4c-0.7-0.4-1.5-0.5-2.2-0.5h-1.5c-2.9,0-5.2,2.3-5.2,5.2l0,0v3
			c0,2.8,2.4,5.1,5.2,5.1h1.5c2.8,0,5.1-2.3,5.2-5.1V55.4C42,54.5,41.4,53.9,40.6,53.9z M39.1,78.4c0,1.2-1,2.2-2.2,2.2h-1.5
			c-1.2,0-2.2-1-2.2-2.2v-3c0-1.2,1-2.2,2.2-2.2h1.5c1.2,0,2.2,1,2.2,2.2V78.4z"/>
		<path class="st1" d="M54.6,73.2h-1.5c-0.8,0-1.5,0.2-2.2,0.5V50.9c0-0.8-0.7-1.5-1.5-1.5c-0.8,0-1.5,0.7-1.5,1.5v30.5
			c0,2.8,2.3,5.1,5.2,5.1h1.5c2.8,0,5.1-2.3,5.2-5.1v-3C59.8,75.5,57.5,73.2,54.6,73.2z M56.9,81.4c0,1.2-1,2.2-2.2,2.2h-1.5
			c-1.2,0-2.2-1-2.2-2.2v-3c0-1.2,1-2.2,2.2-2.2h1.5c1.2,0,2.2,1,2.2,2.2V81.4z"/>
		<path class="st1" d="M73.9,55.4h-1.5c-2.9,0-5.2,2.3-5.2,5.2v0.7c0,2.5-2,4.4-4.4,4.4c-2.5,0-4.4-2-4.4-4.4V45
			c0-0.8-0.7-1.5-1.5-1.5s-1.5,0.7-1.5,1.5v16.3c0,4.1,3.3,7.4,7.4,7.4c2,0,3.9-0.8,5.3-2.3c1,1.4,2.6,2.3,4.3,2.3h1.5
			c2.9,0,5.2-2.3,5.2-5.2v-3C79.1,57.7,76.8,55.4,73.9,55.4z M76.1,63.5c0,1.2-1,2.2-2.2,2.2h-1.5c-1.2,0-2.2-1-2.2-2.2v-3
			c0-1.2,1-2.2,2.2-2.2h1.5c1.2,0,2.2,1,2.2,2.2V63.5z"/>
		<path class="st1" d="M33.1,49.4c-0.8,0-1.5,0.7-1.5,1.5v10.4c0,2.5-2,4.4-4.4,4.4s-4.4-2-4.4-4.4v-0.7c0-2.9-2.3-5.2-5.2-5.2h-1.5
			c-2.9,0-5.2,2.3-5.2,5.2v3c0,2.9,2.3,5.2,5.2,5.2h1.5c1.7,0,3.3-0.9,4.3-2.3c2.8,2.9,7.5,3,10.5,0.2c1.4-1.4,2.3-3.3,2.3-5.3V50.9
			C34.6,50.1,34,49.4,33.1,49.4z M19.8,63.5c0,1.2-1,2.2-2.2,2.2h-1.5c-1.2,0-2.2-1-2.2-2.2v-3c0-1.2,1-2.2,2.2-2.2h1.5
			c1.2,0,2.2,1,2.2,2.2V63.5z"/>
		<ellipse class="st1" cx="39.1" cy="31.6" rx="1.5" ry="3"/>
		<ellipse class="st1" cx="50.9" cy="31.6" rx="1.5" ry="3"/>
		<path class="st1" d="M48,39.1c0,1.6-1.3,3-3,3s-3-1.3-3-3H48z"/>
		<circle class="st0" cx="49.3" cy="10.9" r="1.5"/>
		<circle class="st0" cx="54.6" cy="17.6" r="0.7"/>
	</g>
</g>
</svg>