<svg xmlns="http://www.w3.org/2000/svg" width="64" height="64" viewBox="0 0 64 64">
    <g fill="none" fill-rule="evenodd">
         <path fill="#576E7E" d="M13.7488,48.9617 C12.8098,47.9847 12.8058,46.3747 13.6828,45.2787 L14.1108,44.8547 L17.9158,48.7157 L17.6258,49.0017 C16.4348,50.0017 14.7308,49.9837 13.7488,48.9617 M26.0348,30.9197 C26.3288,30.6287 26.8028,30.6297 27.0958,30.9247 C27.3868,31.2187 27.3848,31.6937 27.0908,31.9857 L27.0908,31.9857 L15.1758,43.7977 L18.9838,47.6637 L30.7518,36.0657 C31.0468,35.7747 31.5228,35.7787 31.8118,36.0737 C32.1028,36.3687 32.0998,36.8437 31.8048,37.1347 L31.8048,37.1347 L18.6338,50.1107 C17.7408,50.8607 16.6658,51.2317 15.6238,51.2317 C14.5198,51.2317 13.4518,50.8177 12.6678,50.0017 C11.2068,48.4817 11.1658,46.0207 12.5708,44.2747 L12.5708,44.2747 Z M44.7927,45.374 C45.3307,44.836 46.2027,44.836 46.7397,45.374 C47.2777,45.912 47.2777,46.784 46.7397,47.321 C46.2027,47.859 45.3307,47.859 44.7927,47.321 C44.2547,46.784 44.2547,45.912 44.7927,45.374 Z M49.6161,12.6635 C49.8861,12.5795 50.1781,12.6525 50.3751,12.8525 C50.5731,13.0525 50.6411,13.3475 50.5531,13.6155 L50.5531,13.6155 L48.1261,20.9385 C48.0881,21.0515 48.0251,21.1535 47.9401,21.2375 L47.9401,21.2375 L36.6531,32.3575 C36.5071,32.5015 36.3171,32.5725 36.1271,32.5725 C35.9331,32.5725 35.7391,32.4985 35.5931,32.3485 C35.3021,32.0535 35.3061,31.5795 35.6011,31.2885 L35.6011,31.2885 L46.2701,20.7765 L42.3801,16.8275 L31.5431,27.5715 C31.2501,27.8625 30.7751,27.8615 30.4831,27.5665 C30.1911,27.2725 30.1931,26.7975 30.4871,26.5065 L30.4871,26.5065 L41.9201,15.1715 C42.0051,15.0875 42.1091,15.0245 42.2231,14.9885 L42.2231,14.9885 Z M46.9951,15.0605 L43.7501,16.0805 L47.0461,19.4275 L48.1161,16.1985 L46.9951,15.0605 Z"/>
        <path fill="#008ECA" d="M23.2371,12.676 C25.9811,13.694 28.0111,15.998 28.6691,18.841 C29.0591,20.528 28.9381,22.253 28.3211,23.864 L49.3691,43.434 C50.1371,44.148 50.5701,45.144 50.5911,46.241 C50.6131,47.498 50.0861,48.761 49.1431,49.704 C48.2191,50.627 46.9901,51.152 45.7581,51.152 C45.7321,51.152 45.7061,51.152 45.6791,51.151 C44.5831,51.131 43.5871,50.698 42.8731,49.93 L30.9621,37.12 L26.2085,32.007 L26.2020026,31.9999551 L23.3071,28.887 C22.9411,29.026 22.5651,29.141 22.1861,29.228 C19.9321,29.75 17.6121,29.362 15.6501,28.138 C13.6881,26.914 12.3201,24.998 11.7991,22.745 C11.1411,19.903 11.9521,16.94 13.9691,14.82 C14.1601,14.621 14.4441,14.541 14.7111,14.614 C14.9771,14.687 15.1811,14.9 15.2431,15.168 L16.0461,18.633 L20.0141,19.844 L23.0481,17.013 L22.2461,13.548 C22.1831,13.279 22.2741,12.998 22.4811,12.816 C22.6891,12.633 22.9791,12.58 23.2371,12.676 Z M24.0631,14.748 L24.6061,17.096 C24.6671,17.357 24.5831,17.631 24.3871,17.814 L20.7211,21.236 C20.5261,21.419 20.2451,21.483 19.9911,21.405 L15.1941,19.941 C14.9371,19.863 14.7421,19.654 14.6821,19.393 L14.1381,17.045 C13.1591,18.633 12.8301,20.551 13.2601,22.407 C13.6911,24.27 14.8221,25.853 16.4441,26.866 C18.0651,27.878 19.9831,28.198 21.8481,27.767 C22.3061,27.661 22.7581,27.507 23.1921,27.311 C23.4861,27.178 23.8311,27.247 24.0511,27.484 L27.3075,30.986 L27.3075,30.986 L32.0544768,36.0909974 C32.056696,36.0933143 32.0589038,36.0956486 32.0611,36.098 L43.9721,48.909 C44.4051,49.375 45.0221,49.639 45.7071,49.652 C46.5501,49.66 47.4251,49.299 48.0821,48.643 C48.7381,47.986 49.1061,47.121 49.0911,46.268 C49.0781,45.583 48.8151,44.966 48.3481,44.533 L26.9171,24.607 C26.6811,24.387 26.6121,24.041 26.7451,23.747 C27.4041,22.298 27.5641,20.719 27.2081,19.179 C26.7781,17.323 25.6401,15.745 24.0631,14.748 Z"/>
    </g>
</svg>
