<?xml version="1.0" encoding="UTF-8"?>
<svg width="90px" height="90px" viewBox="0 0 90 90" version="1.1" xmlns="http://www.w3.org/2000/svg" xmlns:xlink="http://www.w3.org/1999/xlink">
    <title>SAP HANA Database Explorer</title>
    <g id="SAP-HANA-Database-Explorer" stroke="none" stroke-width="1" fill="none" fill-rule="evenodd">
        <g transform="translate(14.000000, 10.000000)" id="Group-2">
            <g id="Group-18">
                <path d="M46.7121911,41.7313511 L59,34.8619261 L59,48.7256282 L46.7121911,55.7216156 L46.7121911,41.7313511 Z M59,16.2880542 L59,30.150046 L46.7121911,37.1460334 L46.7121911,23.2763452 L34.4280132,16.2803578 L46.7121911,9.28437048 L59,16.2880542 Z M29.5671713,51.1362979 L41.852257,44.1394553 L41.852257,58.0040126 L29.5644481,65 L17.1495584,57.9980266 L17.1495584,44.1394553 L29.5671713,51.1362979 Z M29.5671713,18.5738719 L41.8540724,25.4441521 L41.8540724,39.4284305 L29.5671713,46.2961452 L17.1495584,39.4284305 L17.1495584,25.438166 L29.5671713,18.5738719 Z M29.5671713,13.8619918 L17.1495584,6.99598737 L29.5726176,0 L41.8604265,6.99598737 L29.5671713,13.8619918 Z M0,34.8482437 L12.284178,41.7176687 L12.284178,55.7087883 L0,48.7128009 L0,34.8482437 Z M24.5710791,16.1520853 L12.284178,23.2763452 L12.284178,37.1383371 L0,30.1423497 L0,16.2803578 L12.284178,9.28437048 L24.5710791,16.1520853 Z" id="Fill-1" fill="#91BCEC"></path>
                <path d="M46.7121911,41.7313511 L59,34.8619261 L59,48.7256282 L46.7121911,55.7216156 L46.7121911,41.7313511 Z M59,16.2880542 L59,30.150046 L46.7121911,37.1460334 L46.7121911,23.2763452 L34.4280132,16.2803578 L46.7121911,9.28437048 L59,16.2880542 Z M29.5671713,51.1362979 L41.852257,44.1394553 L41.852257,58.0040126 L29.5644481,65 L17.1495584,57.9980266 L17.1495584,44.1394553 L29.5671713,51.1362979 Z M29.5671713,18.5738719 L41.8540724,25.4441521 L41.8540724,39.4284305 L29.5671713,46.2961452 L17.1495584,39.4284305 L17.1495584,25.438166 L29.5671713,18.5738719 Z M29.5671713,13.8619918 L17.1495584,6.99598737 L29.5726176,0 L41.8604265,6.99598737 L29.5671713,13.8619918 Z M0,34.8482437 L12.284178,41.7176687 L12.284178,55.7087883 L0,48.7128009 L0,34.8482437 Z M24.5710791,16.1520853 L12.284178,23.2763452 L12.284178,37.1383371 L0,30.1423497 L0,16.2803578 L12.284178,9.28437048 L24.5710791,16.1520853 Z" id="Stroke-2" stroke="#131F34" stroke-width="2" stroke-linecap="round"></path>
            </g>
            <g id="Group-17" transform="translate(33.000000, 27.000000)">
                <path d="M1.19137265,43.6095134 L1.19137265,43.6095134 C-0.00565743838,42.8686541 -0.360832562,41.3139391 0.402344365,40.1525332 L12.2422645,22.1551003 C13.0065654,20.9936945 14.6104733,20.6505023 15.8086274,21.3902721 C17.0056574,22.1300419 17.3608326,23.6858464 16.5976556,24.8472522 L4.75773552,42.8446851 C3.99455859,44.0050015 2.3895267,44.3503726 1.19137265,43.6095134" id="Fill-3" fill="#5DB9FF"></path>
                <path d="M1.19137265,43.6095134 L1.19137265,43.6095134 C-0.00565743838,42.8686541 -0.360832562,41.3139391 0.402344365,40.1525332 L12.2422645,22.1551003 C13.0065654,20.9936945 14.6104733,20.6505023 15.8086274,21.3902721 C17.0056574,22.1300419 17.3608326,23.6858464 16.5976556,24.8472522 L4.75773552,42.8446851 C3.99455859,44.0050015 2.3895267,44.3503726 1.19137265,43.6095134 Z" id="Stroke-5" stroke="#131F34" stroke-width="2" stroke-linecap="round"></path>
                <path d="M30.4886936,24.6023562 C25.7379099,32.0512001 15.8475712,34.2394229 8.39871544,29.4886467 C0.948748942,24.7378705 -1.23947739,14.8486583 3.51130637,7.39870367 C8.26209014,-0.051250977 18.1524288,-2.23947383 25.6012846,2.51130238 C33.0512511,7.26207859 35.2394774,17.1524016 30.4886936,24.6023562" id="Fill-7" fill="#5DB9FF"></path>
                <path d="M30.4886936,24.6023562 C25.7379099,32.0512001 15.8475712,34.2394229 8.39871544,29.4886467 C0.948748942,24.7378705 -1.23947739,14.8486583 3.51130637,7.39870367 C8.26209014,-0.051250977 18.1524288,-2.23947383 25.6012846,2.51130238 C33.0512511,7.26207859 35.2394774,17.1524016 30.4886936,24.6023562 Z" id="Stroke-9" stroke="#131F34" stroke-width="2" stroke-linecap="round"></path>
                <path d="M26.2735225,21.9129041 C23.0083662,27.035676 16.2086044,28.5395386 11.0868767,25.2733198 C5.96514886,22.0071009 4.46017581,15.2085024 7.72642737,10.0868258 C10.9926789,4.96514921 17.7924407,3.46019121 22.9141685,6.7264101 C28.034801,9.992629 29.539774,16.7912275 26.2735225,21.9129041" id="Fill-11" fill="#F5F3F3"></path>
                <path d="M26.2735225,21.9129041 C23.0083662,27.035676 16.2086044,28.5395386 11.0868767,25.2733198 C5.96514886,22.0071009 4.46017581,15.2085024 7.72642737,10.0868258 C10.9926789,4.96514921 17.7924407,3.46019121 22.9141685,6.7264101 C28.034801,9.992629 29.539774,16.7912275 26.2735225,21.9129041 Z" id="Stroke-13" stroke="#131F34" stroke-width="2" stroke-linecap="round"></path>
            </g>
            <rect id="Rectangle" fill="#EA3824" x="43" y="38" width="8" height="2.5" rx="0.5"></rect>
            <rect id="Rectangle" fill="#19BC9B" transform="translate(53.500000, 39.250000) rotate(0.500000) translate(-53.500000, -39.250000) " x="52" y="38" width="3" height="2.5" rx="0.5"></rect>
            <rect id="Rectangle" fill="#F39B10" x="45" y="42" width="12" height="2.5" rx="0.5"></rect>
            <rect id="Rectangle" fill="#131F34" x="43" y="46" width="14" height="2.5" rx="0.5"></rect>
        </g>
    </g>
</svg>