<?xml version="1.0" encoding="UTF-8"?>
<svg width="90px" height="90px" viewBox="0 0 90 90" version="1.1" xmlns="http://www.w3.org/2000/svg" xmlns:xlink="http://www.w3.org/1999/xlink">
    <title>SAP HANA Tools</title>
    <g id="SAP-HANA-Tools" stroke="none" stroke-width="1" fill="none" fill-rule="evenodd">
        <g transform="translate(8.000000, 10.000000)">
            <g id="Group-8">
                <path d="M46.7129098,41.7316573 L59,34.8614674 L59,48.7258423 L46.7129098,55.7208825 L46.7129098,41.7316573 Z M59,16.2878399 L59,30.1496494 L46.7129098,37.1455447 L46.7129098,23.276039 L34.4294506,16.2801437 L46.7129098,9.28424833 L59,16.2878399 Z M29.5667185,51.1356251 L41.8529009,44.1397298 L41.8529009,58.0032495 L29.564903,65 L17.1498223,57.9981187 L17.1498223,44.1397298 L29.5667185,51.1356251 Z M29.5667185,18.5736275 L41.8547164,25.4438173 L41.8547164,39.4279117 L29.5667185,46.2963913 L17.1498223,39.4279117 L17.1498223,25.4378314 L29.5667185,18.5736275 Z M29.5667185,13.8626646 L17.1498223,6.99589533 L29.5730726,0 L41.8610705,6.99589533 L29.5667185,13.8626646 Z M0,34.8486403 L12.284367,41.717975 L12.284367,55.7089106 L0,48.7121601 L0,34.8486403 Z M24.5714571,16.1518728 L12.284367,23.276039 L12.284367,37.1378485 L0,30.1419531 L0,16.2801437 L12.284367,9.28424833 L24.5714571,16.1518728 Z" id="Fill-1" fill="#91BCEC"></path>
                <path d="M46.7129098,41.7316573 L59,34.8614674 L59,48.7258423 L46.7129098,55.7208825 L46.7129098,41.7316573 Z M59,16.2878399 L59,30.1496494 L46.7129098,37.1455447 L46.7129098,23.276039 L34.4294506,16.2801437 L46.7129098,9.28424833 L59,16.2878399 Z M29.5667185,51.1356251 L41.8529009,44.1397298 L41.8529009,58.0032495 L29.564903,65 L17.1498223,57.9981187 L17.1498223,44.1397298 L29.5667185,51.1356251 Z M29.5667185,18.5736275 L41.8547164,25.4438173 L41.8547164,39.4279117 L29.5667185,46.2963913 L17.1498223,39.4279117 L17.1498223,25.4378314 L29.5667185,18.5736275 Z M29.5667185,13.8626646 L17.1498223,6.99589533 L29.5730726,0 L41.8610705,6.99589533 L29.5667185,13.8626646 Z M0,34.8486403 L12.284367,41.717975 L12.284367,55.7089106 L0,48.7121601 L0,34.8486403 Z M24.5714571,16.1518728 L12.284367,23.276039 L12.284367,37.1378485 L0,30.1419531 L0,16.2801437 L12.284367,9.28424833 L24.5714571,16.1518728 Z" id="Stroke-2" stroke="#131F34" stroke-width="2" stroke-linecap="round"></path>
                <g id="Group-7" transform="translate(21.000000, 25.000000)">
                    <g id="Group-13" transform="translate(28.304777, 22.917128) rotate(-67.000000) translate(-28.304777, -22.917128) translate(14.304777, -1.582872)">
                        <path d="M17.637398,14.3526698 L9.52181179,35.1337642 M6.34801869,43.2603302 C5.08388076,42.7779151 4.45450145,41.3723491 4.94312214,40.1219717 C5.43174283,38.8715944 6.85277731,38.2490661 8.11691524,38.7323679 C9.38105317,39.2156698 10.0095359,40.6212359 9.52091524,41.8716132 C9.0331911,43.1219906 7.61215662,43.7436321 6.34801869,43.2603302 M12.6740877,38.1346698 L22.447398,13.1076132 C22.6679497,13.0331227 22.8920877,12.9781415 23.1090532,12.8770472 C26.2685014,11.4111793 27.6276739,7.68842455 26.1438808,4.56248116 C25.7556739,3.74397172 25.2042946,3.05582078 24.5542946,2.49891512 C24.5300877,2.64789625 24.4924325,2.79599059 24.4359497,2.94142455 L22.6437428,7.53234908 C22.2107083,8.64083965 20.939398,9.19774531 19.8178118,8.76942455 C18.6971221,8.3411038 18.1340877,7.0836321 18.5671221,5.97425474 L20.359329,1.38333021 C20.4140187,1.2441038 20.4821566,1.11374531 20.5610532,0.993141534 C19.6151911,0.971858515 18.6531911,1.13591512 17.7378118,1.55980191 C14.5783635,3.02655663 13.2191911,6.74931135 14.7029842,9.87436795 C14.8509152,10.1865189 15.0365014,10.4667453 15.227467,10.741651 L5.72670835,35.0681415 C5.30712214,35.1656887 4.89201869,35.3040283 4.48677731,35.4929151 C1.32732904,36.9596698 -0.0327399298,40.6824246 1.45015662,43.8074812 C2.93394973,46.9334246 6.69677731,48.2769151 9.85622559,46.8101604 C13.0165704,45.3442925 14.3757428,41.6215378 12.8928463,38.4955944 C12.8309842,38.3661227 12.7431221,38.2588208 12.6740877,38.1346698" id="Fill-3" fill="#F2B076"></path>
                        <path d="M18.0281291,15.2731747 L9.91254292,36.054269 L18.0281291,15.2731747 Z M6.73874982,44.1808351 C5.47461189,43.69842 4.84523258,42.2928539 5.33385327,41.0424766 C5.82247396,39.7920992 7.24350844,39.1695709 8.50764637,39.6528728 C9.7717843,40.1361747 10.4002671,41.5417407 9.91164637,42.7921181 C9.42392223,44.0424954 8.00288775,44.664137 6.73874982,44.1808351 Z M13.0648188,39.0551747 L22.8381291,14.0281181 C23.0586809,13.9536275 23.2828188,13.8986464 23.4997843,13.797552 C26.6592326,12.3316841 28.018405,8.60892941 26.5346119,5.48298601 C26.146405,4.66447658 25.5950257,3.97632563 24.9450257,3.41941997 C24.9208188,3.5684011 24.8831636,3.71649544 24.8266809,3.86192941 L23.034474,8.45285393 C22.6014395,9.5613445 21.3301291,10.1182502 20.2085429,9.68992941 C19.0878533,9.26160865 18.5248188,8.00413695 18.9578533,6.8947596 L20.7500602,2.30383507 C20.8047498,2.16460865 20.8728878,2.03425016 20.9517843,1.91364639 C20.0059222,1.89236337 19.0439222,2.05641997 18.1285429,2.48030676 C14.9690946,3.94706148 13.6099222,7.6698162 15.0937153,10.7948728 C15.2416464,11.1070237 15.4272326,11.3872502 15.6181981,11.6621558 L6.11743947,35.9886464 C5.69785327,36.0861936 5.28274982,36.2245332 4.87750844,36.41342 C1.71806016,37.8801747 0.357991199,41.6029294 1.84088775,44.727986 C3.32468085,47.8539294 7.08750844,49.19742 10.2469567,47.7306653 C13.4073015,46.2647973 14.766474,42.5420426 13.2835774,39.4160992 C13.2217153,39.2866275 13.1338533,39.1793256 13.0648188,39.0551747 Z" id="Stroke-5" stroke="#122034" stroke-width="2" stroke-linecap="round" stroke-linejoin="round"></path>
                    </g>
                </g>
            </g>
            <g id="Penceil" transform="translate(55.500000, 48.000000) rotate(-2.000000) translate(-55.500000, -48.000000) translate(31.000000, 28.000000)">
                <g id="Pen" transform="translate(24.500000, 20.000000) rotate(52.000000) translate(-24.500000, -20.000000) translate(21.000000, -8.000000)" stroke="#131F34" stroke-width="2">
                    <rect id="Rectangle" fill="#75BEFF" transform="translate(3.500000, 30.500000) rotate(90.000000) translate(-3.500000, -30.500000) " x="-16" y="27" width="39" height="7"></rect>
                    <rect id="Rectangle" fill="#FC5D35" x="-1.8189894e-12" y="50" width="7" height="6" rx="1"></rect>
                    <polygon id="Triangle" fill="#F1C795" stroke-linejoin="round" points="3.5 0 7 10 -1.8189894e-12 10"></polygon>
                </g>
                <polyline id="Path-12" fill="#75BEFF" points="35.5811366 8.18348069 36.3665969 7.60603071 39.5155506 11.5215474 38.5311104 12.2004573 35.4040175 8.32479241"></polyline>
            </g>
            <line x1="38.5" y1="61.5" x2="68.5" y2="36.5" id="Path-7" stroke="#131F34" stroke-width="1.5"></line>
        </g>
    </g>
</svg>