<svg id="Layer_1" data-name="Layer 1" xmlns="http://www.w3.org/2000/svg" viewBox="0 0 90 90"><defs><style>.cls-1,.cls-4{fill:#fff;}.cls-2{fill:none;stroke-dasharray:5.99 5.99;}.cls-2,.cls-3{stroke:#173456;stroke-linecap:round;stroke-width:3px;}.cls-2,.cls-3,.cls-4{stroke-miterlimit:10;}.cls-3{fill:#f39fbd;}.cls-4{stroke:#fff;stroke-width:0.25px;}.cls-5{fill:#173456;}</style></defs><path class="cls-1" d="M41.25,25.63,7.45,45.14a1.42,1.42,0,0,0,0,2.43L41.24,68.51a1.4,1.4,0,0,0,1.46,0L77.22,48.31a1.41,1.41,0,0,0,0-2.44L42.67,25.63A1.41,1.41,0,0,0,41.25,25.63Z"/><path class="cls-2" d="M41.25,25.63,7.45,45.14a1.42,1.42,0,0,0,0,2.43L41.24,68.51a1.4,1.4,0,0,0,1.46,0L77.22,48.31a1.41,1.41,0,0,0,0-2.44L42.67,25.63A1.41,1.41,0,0,0,41.25,25.63Z"/><path class="cls-3" d="M64.52,39.09l12.7-7.45a1.41,1.41,0,0,0,0-2.44L42.67,9a1.41,1.41,0,0,0-1.42,0L7.45,28.47a1.42,1.42,0,0,0,0,2.43l33.82,21a1.42,1.42,0,0,0,1.46,0l14.16-8.29"/><path class="cls-4" d="M50.39,42A.84.84,0,0,1,51,40.91a.86.86,0,0,1,1,.58l1.7,5.73c.42,1.41.47,5.5.44,7.59l-9.47,2.83c-.57-.63-1.62-1.77-2.1-2.23-.74-.7-1.69-1.49-2.69-2.33-1.32-1.12-2.81-2.38-4.24-3.74-.37-.36-.76-.87-.54-1.29a.85.85,0,0,1,1.13-.34l4.34,2.74a.88.88,0,0,0,1.31-1L38.27,37.31a.83.83,0,1,1,1.6-.47l2.34,7.84a.88.88,0,0,0,1.68-.5l-.81-2.73a.83.83,0,1,1,1.6-.47l1.14,3.82a.89.89,0,0,0,1.09.59.87.87,0,0,0,.59-1.09l-.81-2.73a.84.84,0,1,1,1.61-.48l1.14,3.82a.88.88,0,0,0,1.68-.5L50.39,42Z"/><path class="cls-5" d="M50.52,39.26a2.64,2.64,0,0,0-.92.5,2.59,2.59,0,0,0-2.78-.89,2.46,2.46,0,0,0-1,.57,2.61,2.61,0,0,0-2.6-.69,2.5,2.5,0,0,0-.77.37l-.82-2.75a2.59,2.59,0,1,0-5,1.48l3,9.91-2.4-1.51-.05,0a2.58,2.58,0,0,0-2-.21h0a2.59,2.59,0,0,0-1.53,1.24c-.58,1.07-.26,2.3.87,3.39,1.46,1.4,3,2.68,4.32,3.81,1,.83,1.91,1.61,2.61,2.27s2.36,2.52,2.37,2.54a.88.88,0,0,0,.91.25l10.62-3.16a.89.89,0,0,0,.63-.83c0-.67.12-6.65-.51-8.76L53.75,41A2.62,2.62,0,0,0,50.52,39.26ZM50.46,42A.84.84,0,0,1,51,40.94a.86.86,0,0,1,1,.59l1.7,5.73c.42,1.4.47,5.49.44,7.59l-9.47,2.82c-.57-.62-1.62-1.77-2.11-2.22C41.9,54.75,41,54,40,53.11c-1.32-1.11-2.81-2.37-4.24-3.74-.37-.35-.76-.87-.54-1.28a.83.83,0,0,1,.5-.4.86.86,0,0,1,.63.06l4.34,2.74a.89.89,0,0,0,1,0,.88.88,0,0,0,.31-1L38.33,37.35a.84.84,0,1,1,1.61-.48l2.34,7.85a.88.88,0,0,0,1.68-.5l-.81-2.73a.84.84,0,1,1,1.6-.48l1.14,3.82a.88.88,0,1,0,1.68-.5l-.81-2.72a.84.84,0,1,1,1.61-.48L49.51,45a.87.87,0,0,0,1.09.59.89.89,0,0,0,.59-1.09L50.46,42Z"/></svg>