<svg id="Layer_1" data-name="Layer 1" xmlns="http://www.w3.org/2000/svg" viewBox="0 0 90 90"><defs><style>.cls-1{fill:#ef7b23;}.cls-2{fill:#cdcccc;}.cls-3{fill:#1daae2;}.cls-4{fill:#fff;}.cls-5{fill:none;stroke:#163c6b;stroke-linecap:round;stroke-linejoin:round;stroke-width:3px;}.cls-6{fill:#163c6b;}</style></defs><path class="cls-1" d="M60.65,43.55c-.07,0,9.75,8.38,11.21,10.8s2,4.85.93,7.27c-1.82,4.08-5.86,2-5.86,2a18.26,18.26,0,0,0,1.58-2A3.11,3.11,0,0,0,69,59.35a6.31,6.31,0,0,1-1.16.89,11,11,0,0,1-1.18.55l.62-5.08a11.37,11.37,0,0,1-1.41,1.75,7.32,7.32,0,0,1-1.89,1.27l.18-4.27a.1.1,0,0,0-.19,0,9.24,9.24,0,0,1-2.63,3.66C59,60,54.82,61.7,54,62.75a3,3,0,0,0-.47,2.59,3,3,0,0,1,1.8-.6,2.9,2.9,0,0,1,3.08,3.07c0,1.57-2.57,4.53-6.39,2.84-3.08-1.37-6.33-5.43-3.92-12.31,1.48-4.22,5.88-7.31,7.8-8.49a.14.14,0,0,0-.11-.26c-3.43,1-14.26,5-14,15.34a19.19,19.19,0,0,0,38.34.66C80.84,54.49,72.06,47.83,60.65,43.55Zm-3.32,19.6a1.15,1.15,0,0,1-1-.52,1.11,1.11,0,0,1,1-.53c.58,0,1.06.23,1.06.53S57.91,63.15,57.33,63.15Z"/><path class="cls-2" d="M11.42,26.73H26.54a0,0,0,0,1,0,0V77.11a0,0,0,0,1,0,0H18a6.54,6.54,0,0,1-6.54-6.54V26.73A0,0,0,0,1,11.42,26.73Z"/><path class="cls-3" d="M19.67,12.77H70.14A8.25,8.25,0,0,1,78.39,21v5.71a0,0,0,0,1,0,0h-67a0,0,0,0,1,0,0V21A8.25,8.25,0,0,1,19.67,12.77Z"/><circle class="cls-4" cx="21.02" cy="20.54" r="1.74"/><circle class="cls-4" cx="26.7" cy="20.54" r="1.74"/><circle class="cls-4" cx="32.95" cy="20.54" r="1.74"/><path class="cls-4" d="M58.29,62.63c0,.29-.47.52-1.06.52a1.17,1.17,0,0,1-1-.52,1.11,1.11,0,0,1,1-.53C57.82,62.1,58.29,62.34,58.29,62.63Z"/><line class="cls-5" x1="36.74" y1="37.28" x2="57.76" y2="37.28"/><line class="cls-5" x1="36.74" y1="46.02" x2="46.56" y2="46.02"/><path class="cls-6" d="M70.77,12.8H19a9.13,9.13,0,0,0-9.12,9.12v48.2A9.13,9.13,0,0,0,19,79.24H36.8a1.5,1.5,0,0,0,0-3H28v-48H76.89V44.81a1.5,1.5,0,0,0,3,0V21.92A9.13,9.13,0,0,0,70.77,12.8ZM25,76.24H19a6.13,6.13,0,0,1-6.12-6.12V28.23H25Zm-12.12-51V21.92A6.12,6.12,0,0,1,19,15.8H70.77a6.13,6.13,0,0,1,6.12,6.12v3.31Z"/></svg>