<svg id="extension-factory" xmlns="http://www.w3.org/2000/svg" viewBox="0 0 56 56"><defs><style>.cls-1{fill:#5a7a94;}.cls-2{fill:#0092d1;}</style></defs><title>extension-factory</title><path class="cls-1" d="M51.589,26.478,41.113,8.492a3.024,3.024,0,0,0-2.614-1.5H28.012v3H38.5l.02.011L49,28.012l-10.5,18L28.012,46v3.007H38.5a3.024,3.024,0,0,0,2.614-1.5L51.589,29.522A3.024,3.024,0,0,0,51.589,26.478Z"/><path class="cls-2" d="M28.012,46,17.481,46,7.005,27.988l10.5-18H28.012v-3H17.5a3.024,3.024,0,0,0-2.614,1.5L4.411,26.478a3.024,3.024,0,0,0,0,3.044L14.887,47.508a3.024,3.024,0,0,0,2.614,1.5H28.012Z"/></svg>