<?xml version="1.0" encoding="utf-8"?>
<!-- Generator: Adobe Illustrator 24.0.3, SVG Export Plug-In . SVG Version: 6.00 Build 0)  -->
<svg version="1.1" id="Layer_1" xmlns="http://www.w3.org/2000/svg" xmlns:xlink="http://www.w3.org/1999/xlink" x="0px" y="0px"
	 viewBox="0 0 56 56" style="enable-background:new 0 0 56 56;" xml:space="preserve">
<style type="text/css">
	.st0{fill:#2D6FCA;}
	.st1{fill:#163C6C;}
</style>
<g id="Layer_2_1_">
	<g>
		<path class="st0" d="M49,22.2h-2.5l0,0c-0.3-0.9-0.7-1.9-1.2-2.8l0,0l1.8-1.8c0.6-0.6,0.9-1.3,0.9-2.1c0-0.8-0.3-1.6-0.9-2.1
			l-4.2-4.2c-1.1-1.1-3.1-1.1-4.2,0L36.9,11l0,0C36,10.5,35,10.1,34,9.8V7.2c0-1.6-1.3-3-3-3h-6c-1.6,0-3,1.3-3,3v2.4l0,0
			c-0.9,0.3-1.9,0.7-2.9,1.2l0,0l-1.7-1.7c-1.1-1.1-3.1-1.1-4.2,0L9,13.3c-0.7,0.6-1,1.4-1,2.2c0,0.8,0.3,1.5,0.9,2.1l1.7,1.7l0,0
			c-0.5,0.9-0.9,1.9-1.2,2.9H7c-1.6,0-3,1.3-3,3v6c0,1.7,1.3,3,3,3h2.4l0,0c0.3,1,0.7,1.9,1.2,2.9l0,0l-1.7,1.7
			C8.3,39.4,8,40.2,8,41s0.3,1.5,0.9,2.1l4.2,4.2c0.6,0.6,1.3,0.8,2.1,0.8s1.5-0.3,2.1-0.8l1.7-1.7l0,0c0.4,0.2,0.9,0.4,1.4,0.6
			l0.4,0.2l1.7-2.5L22,43.6c-0.6-0.2-1-0.4-1.5-0.7l-1.9-1l-3.3,3.3L11,40.9l3.3-3.3l-1-1.9c-0.4-0.8-0.8-1.6-1-2.4l-0.7-2.1H7v-6
			h4.6l0.7-2.1c0.3-0.8,0.6-1.7,1-2.5l1-1.9L11,15.5l4.3-4.3l3.3,3.3l1.9-1c0.8-0.4,1.6-0.8,2.4-1l2.1-0.7V7.2h6v4.6l2.1,0.7
			c0.8,0.3,1.6,0.6,2.4,1l1.9,1l3.3-3.3l4.3,4.3l-3.3,3.3l1,1.9c0.4,0.8,0.7,1.6,1,2.4l0.7,2.1H49v2.2h3v-2.2
			C52,23.6,50.6,22.2,49,22.2z"/>
		<path class="st1" d="M35.2,40.4l-6.9-8.8c-1.4-1.7-4.1,0.2-2.6,2.1c0,0,5.1,6.5,5.2,6.7c0.5,0.6,0.5,1.3,0,1.9
			c-0.2,0.2-5.2,6.7-5.2,6.7c-0.8,0.9-0.5,1.9,0.1,2.4s1.7,0.6,2.4-0.3l6.9-8.7C35.6,41.8,35.6,40.9,35.2,40.4z"/>
		<path class="st1" d="M43.1,40.4l-6.9-8.8c-1.4-1.7-4.1,0.2-2.6,2.1c0,0,5.1,6.5,5.2,6.7c0.5,0.6,0.5,1.3,0,1.9
			c-0.2,0.2-5.2,6.7-5.2,6.7c-0.8,0.9-0.5,1.9,0.2,2.4s1.7,0.6,2.4-0.3l6.9-8.7C43.6,41.8,43.6,40.9,43.1,40.4z"/>
		<path class="st1" d="M44.3,31.6c-1.4-1.7-4.1,0.2-2.6,2.1c0,0,5.1,6.5,5.2,6.7c0.5,0.6,0.5,1.3,0,1.9c-0.2,0.2-5.2,6.7-5.2,6.7
			c-0.7,0.9-0.5,1.8,0.1,2.3s1.7,0.6,2.4-0.2l6.9-8.7c0.4-0.6,0.4-1.5,0-2.1L44.3,31.6z"/>
		<path class="st0" d="M28,22.4c3,0,5.5,2.3,5.8,5.2h3c-0.4-4.6-4.1-8.2-8.8-8.2c-4.9,0-8.9,4-8.9,8.9c0,1.4,0.3,2.6,0.9,3.8
			l2.4-2.1c-0.2-0.5-0.3-1.1-0.3-1.7C22.1,25,24.8,22.4,28,22.4z"/>
	</g>
</g>
</svg>
